####
#
#	OBJ File Generated by LightWave3D
#	LightWave3D OBJ Export v2.3
#
####
o arrow.obj
mtllib arrow.mtl
g default
v -0.05 -0.05 -0
v -0.05 0.05 -0
v 0.05 0.05 -0
v 0.05 -0.05 -0
v -0.05 -0.05 -3
v -0.05 0.05 -3
v 0.05 0.05 -3
v 0.05 -0.05 -3
v -0.2 -0.2 -3
v 0.2 -0.2 -3
v 0.2 0.2 -3
v -0.2 0.2 -3
v -0.05 -0.05 -3.5
v 0.05 -0.05 -3.5
v 0.05 0.05 -3.5
v -0.05 0.05 -3.5
vn 0 0 1
vn 0 0 1
vn 0 0 1
vn 0 0 1
vn -1 0 -0
vn -1 0 -0
vn -1 0 -0
vn -1 0 -0
vn 0 1 -0
vn 0 1 -0
vn 0 1 -0
vn 0 1 -0
vn 1 0 -0
vn 1 0 -0
vn 1 0 -0
vn 1 0 -0
vn 0 -1 -0
vn 0 -1 -0
vn 0 -1 -0
vn 0 -1 -0
vn -0.461126 0.461126 -0.758106
vn 0.461126 0.461126 -0.758106
vn 0.461126 -0.461126 -0.758106
vn -0.461126 -0.461126 -0.758106
vn 0 0 1
vn 0 0 1
vn 0 0 1
vn 0 0 1
vn 0 0 1
vn 0 0 1
vn 0 0 1
vn 0 0 1
vn 0 0 1
vn 0 0 1
vn 0 0 1
vn 0 0 1
vn 0 0 1
vn 0 0 1
vn 0 0 1
vn 0 0 1
vn -0.650945 0.650945 -0.390567
vn -0.461126 0.461126 -0.758106
vn -0.461126 -0.461126 -0.758106
vn -0.650945 -0.650945 -0.390567
vn -0.461126 -0.461126 -0.758106
vn 0.461126 -0.461126 -0.758106
vn 0.650945 -0.650945 -0.390567
vn -0.650945 -0.650945 -0.390567
vn 0.461126 -0.461126 -0.758106
vn 0.461126 0.461126 -0.758106
vn 0.650945 0.650945 -0.390567
vn 0.650945 -0.650945 -0.390567
vn -0.650945 0.650945 -0.390567
vn 0.650945 0.650945 -0.390567
vn 0.461126 0.461126 -0.758106
vn -0.461126 0.461126 -0.758106
g Red_Arrow
usemtl Red_Arrow
s 1
f 4//1 3//2 2//3 1//4
f 2//5 6//6 5//7 1//8
f 3//9 7//10 6//11 2//12
f 8//13 7//14 3//15 4//16
f 5//17 8//18 4//19 1//20
f 16//21 15//22 14//23 13//24
f 5//25 6//26 12//27 9//28
f 8//29 5//30 9//31 10//32
f 11//33 7//34 8//35 10//36
f 11//37 12//38 6//39 7//40
f 12//41 16//42 13//43 9//44
f 13//45 14//46 10//47 9//48
f 14//49 15//50 11//51 10//52
f 12//53 11//54 15//55 16//56
