####
#
#	OBJ File Generated by LightWave3D
#	LightWave3D OBJ Export v2.3
#
####
o base_wall.obj
mtllib base_wall.mtl
g default
v -5 -2.5 5
v 5 -2.5 5
v 5 -2.5 -5
v -5 -2.5 -5
v -5 2.5 5
v 5 2.5 5
v 5 2.5 -5
v -5 2.5 -5
v -5 -5 -0
v 5 -5 -0
v 5 -5 -5
v -5 -5 -5
v -5 5 -0
v -5 5 -5
v 5 5 -5
v 5 5 -0
vn 0 -1 -0
vn 0 -1 -0
vn 0 -1 -0
vn 0 -1 -0
vn 0 0 1
vn 0 0 1
vn 0 0 1
vn 0 0 1
vn 1 0 -0
vn 1 0 -0
vn 1 0 -0
vn 1 0 -0
vn 0 0 -1
vn 0 0 -1
vn 0 0 -1
vn 0 0 -1
vn -1 0 -0
vn -1 0 -0
vn -1 0 -0
vn -1 0 -0
vn 0 1 -0
vn 0 1 -0
vn 0 1 -0
vn 0 1 -0
vn -1 0 -0
vn -1 0 -0
vn -1 0 -0
vn -1 0 -0
vn -0 -0.894427 0.447214
vn -0 -0.894427 0.447214
vn -0 -0.894427 0.447214
vn -0 -0.894427 0.447214
vn 1 -0 -0
vn 1 -0 -0
vn 1 -0 -0
vn 1 -0 -0
vn 0 0 -1
vn 0 0 -1
vn 0 0 -1
vn 0 0 -1
vn 0 0.894427 0.447214
vn 0 0.894427 0.447214
vn 0 0.894427 0.447214
vn 0 0.894427 0.447214
vn -1 0 -0
vn -1 0 -0
vn -1 0 -0
vn -1 0 -0
vn 0 0 -1
vn 0 0 -1
vn 0 0 -1
vn 0 0 -1
vn 1 0 -0
vn 1 0 -0
vn 1 0 -0
vn 1 0 -0
g Metal_Plate
usemtl Metal_Plate
s off
f 12//1 11//2 10//3 9//4
f 2//5 6//6 5//7 1//8
f 3//9 7//10 6//11 2//12
f 8//13 7//14 3//15 4//16
f 5//17 8//18 4//19 1//20
f 16//21 15//22 14//23 13//24
f 1//25 4//26 12//27 9//28
f 2//29 1//30 9//31 10//32
f 11//33 3//34 2//35 10//36
f 4//37 3//38 11//39 12//40
f 16//41 13//42 5//43 6//44
f 13//45 14//46 8//47 5//48
f 14//49 15//50 7//51 8//52
f 7//53 15//54 16//55 6//56
