####
#
#	OBJ File Generated by LightWave3D
#	LightWave3D OBJ Export v2.3
#
####
o base_center.obj
mtllib base_center.mtl
g default
v -5 -5 5
v 5 -5 5
v 5 -5 -5
v -5 -5 -5
v -5 5 5
v 5 5 5
v 5 5 -5
v -5 5 -5
v -4 -2.5 5
v -4 2.5 5
v 4 2.5 5
v 4 -2.5 5
v -4 -2.5 4
v -4 2.5 4
v 4 2.5 4
v 4 -2.5 4
v -4.8 -4.8 4
v -4.8 4.8 4
v 4.8 4.8 4
v 4.8 -4.8 4
v -4.8 -4.8 -4.5
v -4.8 4.8 -4.5
v 4.8 4.8 -4.5
v 4.8 -4.8 -4.5
vn 0 -1 -0
vn 0 -1 -0
vn 0 -1 -0
vn 0 -1 -0
vn 0 0 1
vn 0 0 1
vn 0 0 1
vn 0 0 1
vn 1 0 -0
vn 1 0 -0
vn 1 0 -0
vn 1 0 -0
vn 0 0 -1
vn 0 0 -1
vn 0 0 -1
vn 0 0 -1
vn -1 0 -0
vn -1 0 -0
vn -1 0 -0
vn -1 0 -0
vn 0 1 -0
vn 0 1 -0
vn 0 1 -0
vn 0 1 -0
vn 0 0 1
vn 0 0 1
vn 0 0 1
vn 0 0 1
vn 0 0 1
vn 0 0 1
vn 0 0 1
vn 0 0 1
vn 0 0 1
vn 0 0 1
vn 0 0 1
vn 0 0 1
vn 0 0 1
vn 0 0 1
vn 0 0 1
vn 0 0 1
vn 0 1 0
vn 0 1 0
vn 0 1 0
vn 0 1 0
vn 1 0 -0
vn 1 0 -0
vn 1 0 -0
vn 1 0 -0
vn 0 -1 -0
vn 0 -1 -0
vn 0 -1 -0
vn 0 -1 -0
vn -1 0 -0
vn -1 0 -0
vn -1 0 -0
vn -1 0 -0
vn 0 0 -1
vn 0 0 -1
vn 0 0 -1
vn 0 0 -1
vn 0 0 -1
vn 0 0 -1
vn 0 0 -1
vn 0 0 -1
vn 0 -0 -1
vn 0 -0 -1
vn 0 -0 -1
vn 0 -0 -1
vn 0 -0 -1
vn 0 -0 -1
vn 0 -0 -1
vn 0 -0 -1
vn 0 1 0
vn 0 1 0
vn 0 1 0
vn 0 1 0
vn 1 0 -0
vn 1 0 -0
vn 1 0 -0
vn 1 0 -0
vn 0 -1 -0
vn 0 -1 -0
vn 0 -1 -0
vn 0 -1 -0
vn -1 0 -0
vn -1 0 -0
vn -1 0 -0
vn -1 0 -0
g Metal_Plate
usemtl Metal_Plate
s off
f 4//1 3//2 2//3 1//4
f 24//5 23//6 22//7 21//8
f 3//9 7//10 6//11 2//12
f 8//13 7//14 3//15 4//16
f 5//17 8//18 4//19 1//20
f 6//21 7//22 8//23 5//24
f 12//25 9//26 1//27 2//28
f 9//29 10//30 5//31 1//32
f 6//33 5//34 10//35 11//36
f 6//37 11//38 12//39 2//40
f 16//41 13//42 9//43 12//44
f 13//45 14//46 10//47 9//48
f 14//49 15//50 11//51 10//52
f 11//53 15//54 16//55 12//56
f 13//57 16//58 20//59 17//60
f 18//61 14//62 13//63 17//64
f 18//65 19//66 15//67 14//68
f 16//69 15//70 19//71 20//72
f 24//73 21//74 17//75 20//76
f 21//77 22//78 18//79 17//80
f 22//81 23//82 19//83 18//84
f 19//85 23//86 24//87 20//88
