####
#
#	OBJ File Generated by LightWave3D
#	LightWave3D OBJ Export v2.3
#
####
o base_cannons.obj
mtllib base_cannons.mtl
g default
v 1 4 -1
v -1 4 -1
v -1 4 1
v 1 4 1
v 1 6 -1
v -1 6 -1
v -1 6 1
v 1 6 1
v 0.5 4.5 -1
v 0.5 5.5 -1
v -0.5 5.5 -1
v -0.5 4.5 -1
v 0.5 4.5 -7
v 0.5 5.5 -7
v -0.5 5.5 -7
v -0.5 4.5 -7
v 1 -6 -1
v -1 -6 -1
v -1 -6 1
v 1 -6 1
v 1 -4 -1
v -1 -4 -1
v -1 -4 1
v 1 -4 1
v 0.5 -5.5 -1
v 0.5 -4.5 -1
v -0.5 -4.5 -1
v -0.5 -5.5 -1
v 0.5 -5.5 -7
v 0.5 -4.5 -7
v -0.5 -4.5 -7
v -0.5 -5.5 -7
vt 3 0
vn -0 -1 0
vn -0 -1 0
vn -0 -1 0
vn -0 -1 0
vn 0 -0 -1
vn 0 -0 -1
vn 0 -0 -1
vn 0 -0 -1
vn -1 0 -0
vn -1 0 -0
vn -1 0 -0
vn -1 0 -0
vn 0 0 1
vn 0 0 1
vn 0 0 1
vn 0 0 1
vn 1 -0 -0
vn 1 -0 -0
vn 1 -0 -0
vn 1 -0 -0
vn 0 1 -0
vn 0 1 -0
vn 0 1 -0
vn 0 1 -0
vn 0 0 -1
vn 0 0 -1
vn 0 0 -1
vn 0 0 -1
vn 0 -0 -1
vn 0 -0 -1
vn 0 -0 -1
vn 0 -0 -1
vn 0 -0 -1
vn 0 -0 -1
vn 0 -0 -1
vn 0 -0 -1
vn 0 0 -1
vn 0 0 -1
vn 0 0 -1
vn 0 0 -1
vn -0 -1 0
vn -0 -1 0
vn -0 -1 0
vn -0 -1 0
vn 1 -0 -0
vn 1 -0 -0
vn 1 -0 -0
vn 1 -0 -0
vn -0 1 -0
vn -0 1 -0
vn -0 1 -0
vn -0 1 -0
vn -1 0 -0
vn -1 0 -0
vn -1 0 -0
vn -1 0 -0
vn -0 -1 0
vn -0 -1 0
vn -0 -1 0
vn -0 -1 0
vn 0 -0 -1
vn 0 -0 -1
vn 0 -0 -1
vn 0 -0 -1
vn -1 0 -0
vn -1 0 -0
vn -1 0 -0
vn -1 0 -0
vn 0 0 1
vn 0 0 1
vn 0 0 1
vn 0 0 1
vn 1 -0 -0
vn 1 -0 -0
vn 1 -0 -0
vn 1 -0 -0
vn 0 1 -0
vn 0 1 -0
vn 0 1 -0
vn 0 1 -0
vn 0 0 -1
vn 0 0 -1
vn 0 0 -1
vn 0 0 -1
vn 0 -0 -1
vn 0 -0 -1
vn 0 -0 -1
vn 0 -0 -1
vn 0 -0 -1
vn 0 -0 -1
vn 0 -0 -1
vn 0 -0 -1
vn 0 0 -1
vn 0 0 -1
vn 0 0 -1
vn 0 0 -1
vn -0 -1 0
vn -0 -1 0
vn -0 -1 0
vn -0 -1 0
vn 1 -0 -0
vn 1 -0 -0
vn 1 -0 -0
vn 1 -0 -0
vn -0 1 -0
vn -0 1 -0
vn -0 1 -0
vn -0 1 -0
vn -1 0 -0
vn -1 0 -0
vn -1 0 -0
vn -1 0 -0
g stone
usemtl stone
s 1
f 4//1 3//2 2//3 1/1/4
f 16//5 15//6 14//7 13/1/8
f 3//9 7//10 6//11 2/1/12
f 8//13 7//14 3//15 4/1/16
f 5//17 8//18 4//19 1/1/20
f 6//21 7//22 8//23 5/1/24
f 12//25 9/1/26 1/1/27 2//28
f 9/1/29 10//30 5//31 1/1/32
f 6//33 5//34 10//35 11//36
f 6//37 11//38 12//39 2//40
f 9/1/41 12//42 16//43 13/1/44
f 14//45 10//46 9/1/47 13/1/48
f 11//49 10//50 14//51 15//52
f 12//53 11//54 15//55 16//56
f 20//57 19//58 18//59 17/1/60
f 32//61 31//62 30//63 29/1/64
f 19//65 23//66 22//67 18/1/68
f 24//69 23//70 19//71 20/1/72
f 21//73 24//74 20//75 17/1/76
f 22//77 23//78 24//79 21/1/80
f 28//81 25/1/82 17/1/83 18//84
f 25/1/85 26//86 21//87 17/1/88
f 22//89 21//90 26//91 27//92
f 22//93 27//94 28//95 18//96
f 25/1/97 28//98 32//99 29/1/100
f 30//101 26//102 25/1/103 29/1/104
f 27//105 26//106 30//107 31//108
f 28//109 27//110 31//111 32//112
