####
#
#	OBJ File Generated by LightWave3D
#	LightWave3D OBJ Export v2.3
#
####
o cockpit.obj
mtllib cockpit.mtl
g default
v -0.5 -0.5 0.5
v 0.5 -0.5 0.5
v 0.5 -0.5 -0.5
v -0.5 -0.5 -0.5
v -0.5 0.5 0.5
v 0.5 0.5 0.5
v 0.5 0.5 -0.5
v -0.5 0.5 -0.5
v -0.25 -0.25 -1
v 0.25 -0.25 -1
v 0.25 0.25 -1
v -0.25 0.25 -1
v -0.6 -0.15 0.15
v -0.6 -0.15 -0.15
v -0.6 0.15 -0.15
v -0.6 0.15 0.15
v -0.15 -0.15 0.6
v -0.15 0.15 0.6
v 0.15 0.15 0.6
v 0.15 -0.15 0.6
v 0.6 -0.15 0.15
v 0.6 0.15 0.15
v 0.6 0.15 -0.15
v 0.6 -0.15 -0.15
v -0.15 -0.15 1
v -0.15 0.15 1
v 0.15 0.15 1
v 0.15 -0.15 1
v 1 -0.15 0.15
v 1 0.15 0.15
v 1 0.15 -0.15
v 1 -0.15 -0.15
v -1 -0.15 0.15
v -1 -0.15 -0.15
v -1 0.15 -0.15
v -1 0.15 0.15
v -0.477639 -0.422867 -0.544721
v -0.272361 -0.217588 -0.955279
v -0.272361 0.217588 -0.955279
v -0.477639 0.422867 -0.544721
v -0.422867 -0.477639 -0.544721
v 0.422867 -0.477639 -0.544721
v 0.217588 -0.272361 -0.955279
v -0.217588 -0.272361 -0.955279
v 0.477639 -0.422867 -0.544721
v 0.477639 0.422867 -0.544721
v 0.272361 0.217588 -0.955279
v 0.272361 -0.217588 -0.955279
v -0.217588 0.272361 -0.955279
v 0.217588 0.272361 -0.955279
v 0.422867 0.477639 -0.544721
v -0.422867 0.477639 -0.544721
v -0.2 -0.2 -1
v 0.2 -0.2 -1
v 0.2 0.2 -1
v -0.2 0.2 -1
vt 0.5 0.5
vt 3 0
vn 0 -1 -0
vn 0 -1 -0
vn 0 -1 -0
vn 0 -1 -0
vn 0 0 1
vn 0 0 1
vn 0 0 1
vn 0 0 1
vn 1 0 -0
vn 1 0 -0
vn 1 0 -0
vn 1 0 -0
vn 0 0 -1
vn 0 0 -1
vn 0 0 -1
vn 0 0 -1
vn -1 0 -0
vn -1 0 -0
vn -1 0 -0
vn -1 0 -0
vn 0 1 -0
vn 0 1 -0
vn 0 1 -0
vn 0 1 -0
vn -0.894427 0 -0.447214
vn -0.894427 0 -0.447214
vn -0.894427 0 -0.447214
vn -0.894427 0 -0.447214
vn 0 -0.894427 -0.447214
vn 0 -0.894427 -0.447214
vn 0 -0.894427 -0.447214
vn 0 -0.894427 -0.447214
vn 0.894427 -0 -0.447214
vn 0.894427 -0 -0.447214
vn 0.894427 -0 -0.447214
vn 0.894427 -0 -0.447214
vn -0 0.894427 -0.447214
vn -0 0.894427 -0.447214
vn -0 0.894427 -0.447214
vn -0 0.894427 -0.447214
vn -0.961524 0 0.274721
vn -0.961524 0 0.274721
vn -0.961524 0 0.274721
vn -0.961524 0 0.274721
vn -0.961524 -0.274721 -0
vn -0.961524 -0.274721 -0
vn -0.961524 -0.274721 -0
vn -0.961524 -0.274721 -0
vn -0.961524 0 -0.274721
vn -0.961524 0 -0.274721
vn -0.961524 0 -0.274721
vn -0.961524 0 -0.274721
vn -0.961524 0.274721 -0
vn -0.961524 0.274721 -0
vn -0.961524 0.274721 -0
vn -0.961524 0.274721 -0
vn -0 -0.274721 0.961524
vn -0 -0.274721 0.961524
vn -0 -0.274721 0.961524
vn -0 -0.274721 0.961524
vn -0.274721 0 0.961524
vn -0.274721 0 0.961524
vn -0.274721 0 0.961524
vn -0.274721 0 0.961524
vn 0 0.274721 0.961524
vn 0 0.274721 0.961524
vn 0 0.274721 0.961524
vn 0 0.274721 0.961524
vn 0.274721 0 0.961524
vn 0.274721 0 0.961524
vn 0.274721 0 0.961524
vn 0.274721 0 0.961524
vn 0.961524 -0.274721 -0
vn 0.961524 -0.274721 -0
vn 0.961524 -0.274721 -0
vn 0.961524 -0.274721 -0
vn 0.961524 0 0.274721
vn 0.961524 0 0.274721
vn 0.961524 0 0.274721
vn 0.961524 0 0.274721
vn 0.961524 0.274721 0
vn 0.961524 0.274721 0
vn 0.961524 0.274721 0
vn 0.961524 0.274721 0
vn 0.961524 -0 -0.274721
vn 0.961524 -0 -0.274721
vn 0.961524 -0 -0.274721
vn 0.961524 -0 -0.274721
vn 0 -1 -0
vn 0 -1 -0
vn 0 -1 -0
vn 0 -1 -0
vn -1 0 -0
vn -1 0 -0
vn -1 0 -0
vn -1 0 -0
vn 0 1 0
vn 0 1 0
vn 0 1 0
vn 0 1 0
vn 1 0 -0
vn 1 0 -0
vn 1 0 -0
vn 1 0 -0
vn 0 -1 -0
vn 0 -1 -0
vn 0 -1 -0
vn 0 -1 -0
vn 0 0 1
vn 0 0 1
vn 0 0 1
vn 0 0 1
vn 0 1 -0
vn 0 1 -0
vn 0 1 -0
vn 0 1 -0
vn 0 0 -1
vn 0 0 -1
vn 0 0 -1
vn 0 0 -1
vn 0 0 1
vn 0 0 1
vn 0 0 1
vn 0 0 1
vn 0 -1 -0
vn 0 -1 -0
vn 0 -1 -0
vn 0 -1 -0
vn 0 -0 -1
vn 0 -0 -1
vn 0 -0 -1
vn 0 -0 -1
vn 0 1 0
vn 0 1 0
vn 0 1 0
vn 0 1 0
vn -0.894427 0 -0.447214
vn -0.894427 0 -0.447214
vn -0.894427 0 -0.447214
vn -0.894427 0 -0.447214
vn -0.894427 0 -0.447214
vn -0.894427 0 -0.447214
vn -0.894427 0 -0.447214
vn -0.894427 0 -0.447214
vn -0.894427 0 -0.447214
vn -0.894427 0 -0.447214
vn -0.894427 0 -0.447214
vn -0.894427 0 -0.447214
vn -0.894427 0 -0.447214
vn -0.894427 0 -0.447214
vn -0.894427 0 -0.447214
vn -0.894427 0 -0.447214
vn 0 -0.894427 -0.447214
vn 0 -0.894427 -0.447214
vn 0 -0.894427 -0.447214
vn 0 -0.894427 -0.447214
vn 0 -0.894427 -0.447214
vn 0 -0.894427 -0.447214
vn 0 -0.894427 -0.447214
vn 0 -0.894427 -0.447214
vn 0 -0.894427 -0.447214
vn 0 -0.894427 -0.447214
vn 0 -0.894427 -0.447214
vn 0 -0.894427 -0.447214
vn 0 -0.894427 -0.447214
vn 0 -0.894427 -0.447214
vn 0 -0.894427 -0.447214
vn 0 -0.894427 -0.447214
vn 0.894427 0 -0.447214
vn 0.894427 0 -0.447214
vn 0.894427 0 -0.447214
vn 0.894427 0 -0.447214
vn 0.894427 -0 -0.447214
vn 0.894427 -0 -0.447214
vn 0.894427 -0 -0.447214
vn 0.894427 -0 -0.447214
vn 0.894427 0 -0.447214
vn 0.894427 0 -0.447214
vn 0.894427 0 -0.447214
vn 0.894427 0 -0.447214
vn 0.894427 -0 -0.447214
vn 0.894427 -0 -0.447214
vn 0.894427 -0 -0.447214
vn 0.894427 -0 -0.447214
vn 0 0.894427 -0.447214
vn 0 0.894427 -0.447214
vn 0 0.894427 -0.447214
vn 0 0.894427 -0.447214
vn -0 0.894427 -0.447214
vn -0 0.894427 -0.447214
vn -0 0.894427 -0.447214
vn -0 0.894427 -0.447214
vn 0 0.894427 -0.447214
vn 0 0.894427 -0.447214
vn 0 0.894427 -0.447214
vn 0 0.894427 -0.447214
vn -0 0.894427 -0.447214
vn -0 0.894427 -0.447214
vn -0 0.894427 -0.447214
vn -0 0.894427 -0.447214
vn 0 0 -1
vn 0 0 -1
vn 0 0 -1
vn 0 0 -1
vn 0 0 -1
vn 0 0 -1
vn 0 0 -1
vn 0 0 -1
vn 0 -0 -1
vn 0 -0 -1
vn 0 -0 -1
vn 0 -0 -1
vn 0 -0 -1
vn 0 -0 -1
vn 0 -0 -1
vn 0 -0 -1
g Metal
usemtl Metal
s off
f 4/1/1 3/1/2 2/1/3 1/1/4
f 28/1/5 27/1/6 26/1/7 25/1/8
f 32/1/9 31/1/10 30/1/11 29/1/12
g Glass
usemtl Glass
s off
f 56//13 55//14 54//15 53//16
g Metal
usemtl Metal
s off
f 36/1/17 35/1/18 34/1/19 33/1/20
f 6/1/21 7/1/22 8/1/23 5/1/24
g Glass
usemtl Glass
s off
f 40//25 39//26 38//27 37//28
f 44//29 43//30 42//31 41//32
f 48//33 47//34 46//35 45//36
f 52//37 51//38 50//39 49//40
g Metal
usemtl Metal
s off
f 5/1/41 16/1/42 13/1/43 1/1/44
f 13/1/45 14/1/46 4/1/47 1/1/48
f 14/1/49 15/1/50 8/1/51 4/1/52
f 5/1/53 8/1/54 15/1/55 16/1/56
f 20/1/57 17/1/58 1/1/59 2/1/60
f 17/1/61 18/1/62 5/1/63 1/1/64
f 6/1/65 5/1/66 18/1/67 19/1/68
f 6/1/69 19/1/70 20/1/71 2/1/72
f 3/1/73 24/1/74 21/1/75 2/1/76
f 21/1/77 22/1/78 6/1/79 2/1/80
f 23/1/81 7/1/82 6/1/83 22/1/84
f 7/1/85 23/1/86 24/1/87 3/1/88
f 17/1/89 20/1/90 28/1/91 25/1/92
f 26/1/93 18/1/94 17/1/95 25/1/96
f 19/1/97 18/1/98 26/1/99 27/1/100
f 20/1/101 19/1/102 27/1/103 28/1/104
f 24/1/105 32/1/106 29/1/107 21/1/108
f 29/1/109 30/1/110 22/1/111 21/1/112
f 30/1/113 31/1/114 23/1/115 22/1/116
f 23/1/117 31/1/118 32/1/119 24/1/120
f 16/1/121 36/1/122 33/1/123 13/1/124
f 33/1/125 34/1/126 14/1/127 13/1/128
f 34/1/129 35/1/130 15/1/131 14/1/132
f 15/1/133 35/1/134 36/1/135 16/1/136
f 8/1/137 40/1/138 37/1/139 4/1/140
f 37/1/141 38/1/142 9/1/143 4/1/144
f 38/1/145 39/1/146 12/1/147 9/1/148
f 40/1/149 8/1/150 12/1/151 39/1/152
f 9/1/153 44/1/154 41/1/155 4/1/156
f 41/1/157 42/1/158 3/1/159 4/1/160
f 42/1/161 43/1/162 10/1/163 3/1/164
f 9/1/165 10/1/166 43/1/167 44/1/168
f 10/1/169 48/1/170 45/1/171 3/1/172
f 45/1/173 46/1/174 7/1/175 3/1/176
f 11/1/177 7/1/178 46/1/179 47/1/180
f 11/1/181 47/1/182 48/1/183 10/1/184
f 8/1/185 52/1/186 49/1/187 12/1/188
f 49/1/189 50/1/190 11/1/191 12/1/192
f 50/1/193 51/1/194 7/1/195 11/1/196
f 8/1/197 7/1/198 51/1/199 52/1/200
f 12/1/201 56/1/202 53/1/203 9/1/204
f 53/1/205 54/1/206 10/1/207 9/1/208
f 54/1/209 55/1/210 11/1/211 10/1/212
f 12/1/213 11/1/214 55/1/215 56/1/216
