####
#
#	OBJ File Generated by LightWave3D
#	LightWave3D OBJ Export v2.3
#
####
o engine.obj
mtllib engine.mtl
g default
v 0.5 -0.5 0.5
v 0.5 -0.5 -0.5
v -0.5 -0.5 -0.5
v -0.5 -0.5 0.5
v 0.5 0.5 0.5
v 0.5 0.5 -0.5
v -0.5 0.5 -0.5
v -0.5 0.5 0.5
v 0.15 -0.15 -0.6
v 0.15 0.15 -0.6
v -0.15 0.15 -0.6
v -0.15 -0.15 -0.6
v 0.15 -0.15 -1
v 0.15 0.15 -1
v -0.15 0.15 -1
v -0.15 -0.15 -1
v 0.3 -0.6 0.3
v 0.3 -0.6 -0.3
v -0.3 -0.6 -0.3
v -0.3 -0.6 0.3
v 0.3 0.6 0.3
v -0.3 0.6 0.3
v -0.3 0.6 -0.3
v 0.3 0.6 -0.3
v 0.35 -0.35 1
v -0.35 -0.35 1
v -0.35 0.35 1
v 0.35 0.35 1
v 0.3 -0.3 1
v -0.3 -0.3 1
v -0.3 0.3 1
v 0.3 0.3 1
v 0.3 -0.3 0.95
v -0.3 -0.3 0.95
v -0.3 0.3 0.95
v 0.3 0.3 0.95
vt 0.5 0.5
vt 3 0
vn 0 -0 -1
vn 0 -0 -1
vn 0 -0 -1
vn 0 -0 -1
vn 0 -0.274721 -0.961524
vn 0 -0.274721 -0.961524
vn 0 -0.274721 -0.961524
vn 0 -0.274721 -0.961524
vn 0.274721 -0 -0.961524
vn 0.274721 -0 -0.961524
vn 0.274721 -0 -0.961524
vn 0.274721 -0 -0.961524
vn 0 0.274721 -0.961524
vn 0 0.274721 -0.961524
vn 0 0.274721 -0.961524
vn 0 0.274721 -0.961524
vn -0.274721 0 -0.961524
vn -0.274721 0 -0.961524
vn -0.274721 0 -0.961524
vn -0.274721 0 -0.961524
vn -0 -1 0
vn -0 -1 0
vn -0 -1 0
vn -0 -1 0
vn 1 -0 -0
vn 1 -0 -0
vn 1 -0 -0
vn 1 -0 -0
vn 0 1 -0
vn 0 1 -0
vn 0 1 -0
vn 0 1 -0
vn -1 0 -0
vn -1 0 -0
vn -1 0 -0
vn -1 0 -0
vn 0 -0.894427 -0.447214
vn 0 -0.894427 -0.447214
vn 0 -0.894427 -0.447214
vn 0 -0.894427 -0.447214
vn -0.447214 -0.894427 0
vn -0.447214 -0.894427 0
vn -0.447214 -0.894427 0
vn -0.447214 -0.894427 0
vn -0.447214 0.894427 -0
vn -0.447214 0.894427 -0
vn -0.447214 0.894427 -0
vn -0.447214 0.894427 -0
vn 0 0.894427 -0.447214
vn 0 0.894427 -0.447214
vn 0 0.894427 -0.447214
vn 0 0.894427 -0.447214
vn 0 0.894427 0.447214
vn 0 0.894427 0.447214
vn 0 0.894427 0.447214
vn 0 0.894427 0.447214
vn 0.447214 0.894427 -0
vn 0.447214 0.894427 -0
vn 0.447214 0.894427 -0
vn 0.447214 0.894427 -0
vn 0.447214 -0.894427 -0
vn 0.447214 -0.894427 -0
vn 0.447214 -0.894427 -0
vn 0.447214 -0.894427 -0
vn -0 -0.894427 0.447214
vn -0 -0.894427 0.447214
vn -0 -0.894427 0.447214
vn -0 -0.894427 0.447214
vn 0 1 0
vn 0 1 0
vn 0 1 0
vn 0 1 0
vn 0 -1 -0
vn 0 -1 -0
vn 0 -1 -0
vn 0 -1 -0
vn 0.957826 0 0.287348
vn 0.957826 0 0.287348
vn 0.957826 0 0.287348
vn 0.957826 0 0.287348
vn -0 -0.957826 0.287348
vn -0 -0.957826 0.287348
vn -0 -0.957826 0.287348
vn -0 -0.957826 0.287348
vn -0.957826 0 0.287348
vn -0.957826 0 0.287348
vn -0.957826 0 0.287348
vn -0.957826 0 0.287348
vn 0 0.957826 0.287348
vn 0 0.957826 0.287348
vn 0 0.957826 0.287348
vn 0 0.957826 0.287348
vn 0 0 1
vn 0 0 1
vn 0 0 1
vn 0 0 1
vn 0 0 1
vn 0 0 1
vn 0 0 1
vn 0 0 1
vn 0 0 1
vn 0 0 1
vn 0 0 1
vn 0 0 1
vn 0 0 1
vn 0 0 1
vn 0 0 1
vn 0 0 1
vn -1 0 -0
vn -1 0 -0
vn -1 0 -0
vn -1 0 -0
vn -0 1 -0
vn -0 1 -0
vn -0 1 -0
vn -0 1 -0
vn 1 -0 -0
vn 1 -0 -0
vn 1 -0 -0
vn 1 -0 -0
vn -0 -1 0
vn -0 -1 0
vn -0 -1 0
vn -0 -1 0
vn 1 -0 -0
vn 1 -0 -0
vn 1 -0 -0
vn 1 -0 -0
vn -1 -0 0
vn -1 -0 0
vn -1 -0 0
vn -1 -0 0
vn 0 0 1
vn 0 0 1
vn 0 0 1
vn 0 0 1
g Metal
usemtl Metal
s off
f 16/1/1 15/1/2 14/1/3 13/1/4
f 3/1/5 12/1/6 9/1/7 2/1/8
f 9/1/9 10/1/10 6/1/11 2/1/12
f 11/1/13 7/1/14 6/1/15 10/1/16
f 7/1/17 11/1/18 12/1/19 3/1/20
f 9/1/21 12/1/22 16/1/23 13/1/24
f 14/1/25 10/1/26 9/1/27 13/1/28
f 15/1/29 11/1/30 10/1/31 14/1/32
f 12/1/33 11/1/34 15/1/35 16/1/36
f 19/1/37 3/1/38 2/1/39 18/1/40
f 20/1/41 4/1/42 3/1/43 19/1/44
f 8/1/45 22/1/46 23/1/47 7/1/48
f 7/1/49 23/1/50 24/1/51 6/1/52
g Warning_stripes
usemtl Warning_stripes
s 1
f 21//53 22//54 8//55 5//56
f 24//57 21//58 5//59 6//60
f 2//61 1//62 17//63 18//64
f 1//65 4//66 20//67 17//68
g Metal
usemtl Metal
s off
f 24/1/69 23/1/70 22/1/71 21/1/72
f 20/1/73 19/1/74 18/1/75 17/1/76
g Engine_nozzle
usemtl Engine_nozzle
s 1
f 5//77 28//78 25//79 1//80
f 25//81 26//82 4//83 1//84
f 26//85 27//86 8//87 4//88
f 5//89 8//90 27//91 28//92
f 28//93 32//94 29//95 25//96
f 29//97 30//98 26//99 25//100
f 30//101 31//102 27//103 26//104
f 28//105 27//106 31//107 32//108
g Metal
usemtl Metal
s off
f 29/1/109 32/1/110 36/1/111 33/1/112
f 30/1/113 29/1/114 33/1/115 34/1/116
f 35/1/117 31/1/118 30/1/119 34/1/120
f 32/1/121 31/1/122 35/1/123 36/1/124
f 6/1/125 5/1/126 1/1/127 2/1/128
f 3/1/129 4/1/130 8/1/131 7/1/132
f 34/1/133 33/1/134 36/1/135 35/1/136
v 0.3 -0.3 0.95
v -0.3 -0.3 0.95
v -0.3 0.3 0.95
v 0.3 0.3 0.95
v 0.15 -0.15 1.5
v -0.15 -0.15 1.5
v -0.15 0.15 1.5
v 0.15 0.15 1.5
vt 3 0
vn 0 0 1
vn 0 0 1
vn 0 0 1
vn 0 0 1
vn 0.964764 0 0.263117
vn 0.964764 0 0.263117
vn 0.964764 0 0.263117
vn 0.964764 0 0.263117
vn -0 -0.964764 0.263117
vn -0 -0.964764 0.263117
vn -0 -0.964764 0.263117
vn -0 -0.964764 0.263117
vn -0.964764 0 0.263117
vn -0.964764 0 0.263117
vn -0.964764 0 0.263117
vn -0.964764 0 0.263117
vn 0 0.964764 0.263117
vn 0 0.964764 0.263117
vn 0 0.964764 0.263117
vn 0 0.964764 0.263117
vn 0 -0 -1
vn 0 -0 -1
vn 0 -0 -1
vn 0 -0 -1
g Fire_front
usemtl Fire_front
s 1
f 44//137 43//138 42//139 41/3/140
f 40//141 44//142 41/3/143 37/3/144
f 41/3/145 42//146 38//147 37/3/148
f 42//149 43//150 39//151 38//152
f 40//153 39//154 43//155 44//156
g Engine_nozzle
usemtl Engine_nozzle
s 1
f 38//157 39//158 40//159 37//160
