####
#
#	OBJ File Generated by LightWave3D
#	LightWave3D OBJ Export v2.3
#
####
o plasma.obj
mtllib plasma.mtl
g default
v 0 0 0.995
v 0 0.1 0.173205
v 0.0587785 0.0809017 0.173205
v 0.0951057 0.0309017 0.173205
v 0.0951057 -0.0309017 0.173205
v 0.0587785 -0.0809017 0.173205
v 0 -0.1 0.173205
v -0.0587785 -0.0809017 0.173205
v -0.0951057 -0.0309017 0.173205
v -0.0951057 0.0309017 0.173205
v -0.0587785 0.0809017 0.173205
v 0 0.173205 0.1
v 0.101807 0.140126 0.1
v 0.164728 0.0535233 0.1
v 0.164728 -0.0535233 0.1
v 0.101807 -0.140126 0.1
v 0 -0.173205 0.1
v -0.101807 -0.140126 0.1
v -0.164728 -0.0535233 0.1
v -0.164728 0.0535233 0.1
v -0.101807 0.140126 0.1
v 0 0.2 1.22465e-017
v 0.117557 0.161803 1.22465e-017
v 0.190211 0.0618034 1.22465e-017
v 0.190211 -0.0618034 1.22465e-017
v 0.117557 -0.161803 1.22465e-017
v 0 -0.2 1.22465e-017
v -0.117557 -0.161803 1.22465e-017
v -0.190211 -0.0618034 1.22465e-017
v -0.190211 0.0618034 1.22465e-017
v -0.117557 0.161803 1.22465e-017
v 0 0.173205 -0.1
v 0.101807 0.140126 -0.1
v 0.164728 0.0535233 -0.1
v 0.164728 -0.0535233 -0.1
v 0.101807 -0.140126 -0.1
v 0 -0.173205 -0.1
v -0.101807 -0.140126 -0.1
v -0.164728 -0.0535233 -0.1
v -0.164728 0.0535233 -0.1
v -0.101807 0.140126 -0.1
v 0 0.1 -0.173205
v 0.0587785 0.0809017 -0.173205
v 0.0951057 0.0309017 -0.173205
v 0.0951057 -0.0309017 -0.173205
v 0.0587785 -0.0809017 -0.173205
v 0 -0.1 -0.173205
v -0.0587785 -0.0809017 -0.173205
v -0.0951057 -0.0309017 -0.173205
v -0.0951057 0.0309017 -0.173205
v -0.0587785 0.0809017 -0.173205
v 0 -2.44929e-017 -0.2
v -0.266545 -0.00922859 0.70055
v -0.213853 0.160698 0.70055
v -0.0862564 0.250786 0.70055
v 0.0828865 0.267263 0.700108
v 0.213589 0.154238 0.700108
v 0.255928 0.0177008 0.700108
v 0.213589 -0.154238 0.700108
v 0.0828865 -0.267263 0.700108
v -0.0862564 -0.250786 0.70055
v -0.213853 -0.160698 0.70055
v 0.12211 0.351121 0.31784
v 0.305173 0.212289 0.31784
v 0.37167 0.00763088 0.31784
v 0.305173 -0.212289 0.31784
v 0.12211 -0.351121 0.31784
v -0.11473 -0.353104 0.319389
v -0.300368 -0.21823 0.319389
v -0.371276 0 0.319389
v -0.300368 0.21823 0.319389
v -0.11473 0.353104 0.319389
vn 0.169329 0.973407 0.154295
vn 0.433535 0.887457 0.156424
vn 0.304192 0.936207 0.17602
vn 0.704742 0.694794 0.143529
vn 0.871835 0.463794 0.157477
vn 0.796386 0.578608 0.17602
vn 0.978127 -0.140389 0.153488
vn 0.984387 -3.65046e-008 0.17602
vn 0.978127 0.140389 0.153488
vn 0.712701 -0.682393 0.162473
vn 0.796386 -0.578608 0.17602
vn 0.871835 -0.463794 0.157477
vn 0.169328 -0.973407 0.154295
vn 0.304192 -0.936207 0.17602
vn 0.433535 -0.887457 0.156424
vn -0.304192 -0.936207 0.17602
vn -0.167674 -0.974052 0.152013
vn -0.435681 -0.886896 0.153614
vn -0.796386 -0.578608 0.17602
vn -0.707066 -0.691204 0.14931
vn -0.874744 -0.460247 0.151646
vn -0.984387 -1.82523e-008 0.17602
vn -0.977986 -0.137991 0.156532
vn -0.977986 0.137991 0.156532
vn -0.874744 0.460247 0.151646
vn -0.71117 0.684803 0.159005
vn -0.796386 0.578608 0.17602
vn -0.435681 0.886896 0.153614
vn -0.167674 0.974052 0.152013
vn -0.304192 0.936207 0.17602
vn -3.99922e-009 0.864598 -0.502464
vn 0.00286971 0.961907 -0.273362
vn 0.569448 0.774021 -0.276803
vn 0.508198 0.699475 -0.502464
vn 0.508198 0.699475 -0.502464
vn 0.569448 0.774021 -0.276803
vn 0.912298 0.296424 -0.282569
vn 0.822282 0.267176 -0.502464
vn 0.822282 -0.267176 -0.502464
vn 0.822282 0.267176 -0.502464
vn 0.912298 0.296424 -0.282569
vn 0.915651 -0.291483 -0.276803
vn 0.508198 -0.699475 -0.502464
vn 0.822282 -0.267176 -0.502464
vn 0.915651 -0.291483 -0.276803
vn 0.569448 -0.774021 -0.276803
vn 0 -0.864598 -0.502464
vn 0.508198 -0.699475 -0.502464
vn 0.569448 -0.774021 -0.276803
vn 0.00286974 -0.961907 -0.273362
vn -0.565022 -0.777686 -0.275598
vn -0.508198 -0.699475 -0.502464
vn 0 -0.864598 -0.502464
vn 0.00286974 -0.961907 -0.273362
vn -0.914225 -0.29705 -0.275598
vn -0.822282 -0.267176 -0.502464
vn -0.508198 -0.699475 -0.502464
vn -0.565022 -0.777686 -0.275598
vn -0.914225 0.29705 -0.275598
vn -0.822282 0.267176 -0.502464
vn -0.822282 -0.267176 -0.502464
vn -0.914225 -0.29705 -0.275598
vn -0.914225 0.29705 -0.275598
vn -0.565022 0.777686 -0.275598
vn -0.508198 0.699475 -0.502464
vn -0.822282 0.267176 -0.502464
vn -0.565022 0.777686 -0.275598
vn 0.00286971 0.961907 -0.273362
vn -3.99922e-009 0.864598 -0.502464
vn -0.508198 0.699475 -0.502464
vn 0 0.497423 -0.867508
vn -3.99922e-009 0.864598 -0.502464
vn 0.508198 0.699475 -0.502464
vn 0.292378 0.402423 -0.867508
vn 0.292378 0.402423 -0.867508
vn 0.508198 0.699475 -0.502464
vn 0.822282 0.267176 -0.502464
vn 0.473077 0.153712 -0.867508
vn 0.473077 -0.153712 -0.867508
vn 0.473077 0.153712 -0.867508
vn 0.822282 0.267176 -0.502464
vn 0.822282 -0.267176 -0.502464
vn 0.292378 -0.402423 -0.867508
vn 0.473077 -0.153712 -0.867508
vn 0.822282 -0.267176 -0.502464
vn 0.508198 -0.699475 -0.502464
vn 0 -0.497423 -0.867508
vn 0.292378 -0.402423 -0.867508
vn 0.508198 -0.699475 -0.502464
vn 0 -0.864598 -0.502464
vn -0.508198 -0.699475 -0.502464
vn -0.292378 -0.402423 -0.867508
vn 0 -0.497423 -0.867508
vn 0 -0.864598 -0.502464
vn -0.822282 -0.267176 -0.502464
vn -0.473077 -0.153712 -0.867508
vn -0.292378 -0.402423 -0.867508
vn -0.508198 -0.699475 -0.502464
vn -0.822282 0.267176 -0.502464
vn -0.473077 0.153712 -0.867508
vn -0.473077 -0.153712 -0.867508
vn -0.822282 -0.267176 -0.502464
vn -0.822282 0.267176 -0.502464
vn -0.508198 0.699475 -0.502464
vn -0.292378 0.402423 -0.867508
vn -0.473077 0.153712 -0.867508
vn -0.508198 0.699475 -0.502464
vn -3.99922e-009 0.864598 -0.502464
vn 0 0.497423 -0.867508
vn -0.292378 0.402423 -0.867508
vn 0 0.497423 -0.867508
vn 0.292378 0.402423 -0.867508
vn 4.64438e-009 -1.54813e-009 -1
vn 0.292378 0.402423 -0.867508
vn 0.473077 0.153712 -0.867508
vn 4.64438e-009 -1.54813e-009 -1
vn 4.64438e-009 -1.54813e-009 -1
vn 0.473077 0.153712 -0.867508
vn 0.473077 -0.153712 -0.867508
vn 4.64438e-009 -1.54813e-009 -1
vn 0.473077 -0.153712 -0.867508
vn 0.292378 -0.402423 -0.867508
vn 4.64438e-009 -1.54813e-009 -1
vn 0.292378 -0.402423 -0.867508
vn 0 -0.497423 -0.867508
vn -0.292378 -0.402423 -0.867508
vn 4.64438e-009 -1.54813e-009 -1
vn 0 -0.497423 -0.867508
vn -0.473077 -0.153712 -0.867508
vn 4.64438e-009 -1.54813e-009 -1
vn -0.292378 -0.402423 -0.867508
vn -0.473077 0.153712 -0.867508
vn 4.64438e-009 -1.54813e-009 -1
vn -0.473077 -0.153712 -0.867508
vn -0.473077 0.153712 -0.867508
vn -0.292378 0.402423 -0.867508
vn 4.64438e-009 -1.54813e-009 -1
vn -0.292378 0.402423 -0.867508
vn 0 0.497423 -0.867508
vn 4.64438e-009 -1.54813e-009 -1
vn 0.910486 -0.297416 0.287332
vn 0.37171 -0.880433 0.294395
vn 0.817331 -0.465817 0.339092
vn -0.282652 -0.871567 0.400597
vn -0.470119 -0.80536 0.361086
vn -0.0917416 -0.926147 0.365834
vn -0.817663 -0.499034 0.287042
vn -0.905678 0.310601 0.288573
vn -0.937703 0.0976216 0.333443
vn 0.326638 0.945145 0.00305661
vn 0.303488 0.934041 -0.188315
vn 0.299625 0.954057 -0.000141579
vn 0.558848 -0.777724 0.287811
vn -0.226818 -0.935751 0.270043
vn 0.379753 -0.86838 0.318909
vn -0.749921 -0.544702 0.375391
vn -0.854804 -0.373277 0.360521
vn -0.627479 -0.699666 0.341669
vn -0.959539 0.0744023 0.271569
vn -0.551848 0.785063 0.281318
vn -0.70737 0.630209 0.320101
vn 0.823707 0.56701 0.00264416
vn 0.798286 0.579989 -0.162336
vn 0.79211 0.610377 -0.00137571
vn 0.999687 -0.0239067 0.00739422
vn 0.988648 0 -0.150248
vn 0.999581 0.0264793 0.0117131
vn -0.725353 -0.629115 0.279424
vn -0.1907 -0.926082 0.325585
vn 0.0247899 -0.954433 0.297395
vn -0.931568 -0.00292832 0.363555
vn -0.92472 0.195437 0.326647
vn -0.913045 -0.20022 0.355333
vn -0.747765 0.617619 0.243708
vn -0.0156544 0.961339 0.274922
vn -0.222296 0.928495 0.297459
vn 0.823707 -0.56701 0.00264416
vn 0.805694 -0.592007 0.019592
vn 0.798286 -0.579989 -0.162336
vn -0.959539 -0.0744023 0.271569
vn -0.70737 -0.630209 0.320101
vn -0.551848 -0.785063 0.281318
vn -0.749921 0.544702 0.375391
vn -0.627479 0.699666 0.341669
vn -0.854804 0.373277 0.360521
vn 0.558848 0.777724 0.287811
vn 0.379753 0.86838 0.318909
vn -0.226818 0.935751 0.270043
vn 0.326638 -0.945145 0.00305662
vn 0.299624 -0.954057 -0.000141577
vn 0.303488 -0.934041 -0.188315
vn -0.817663 0.499034 0.287042
vn -0.937702 -0.0976217 0.333443
vn -0.905678 -0.310601 0.288573
vn -0.282652 0.871567 0.400597
vn -0.0917415 0.926147 0.365834
vn -0.470119 0.80536 0.361086
vn 0.910486 0.297416 0.287332
vn 0.817332 0.465817 0.339092
vn 0.37171 0.880433 0.294395
vn 0.91157 -0.301758 0.279253
vn 0.940764 -0.0977898 0.324653
vn 0.82018 0.500438 0.277247
vn -0.304784 -0.938028 -0.164954
vn -0.290569 -0.956848 0.00349925
vn -0.320728 -0.947171 0.000617302
vn -0.364936 0.891566 0.268203
vn -0.81678 0.481666 0.317598
vn -0.913026 0.295101 0.281602
vn 0.472022 0.802494 0.364963
vn 0.0946427 0.932482 0.348596
vn 0.286781 0.88036 0.377788
vn 0.562071 -0.777104 0.283169
vn 0.708982 -0.62835 0.320188
vn 0.959771 -0.0724547 0.271273
vn -0.797432 -0.579368 -0.168625
vn -0.796762 -0.604293 0.000414659
vn -0.820258 -0.571985 0.00317904
vn 0.221697 0.9341 0.279833
vn -0.384214 0.863452 0.32685
vn -0.568444 0.771235 0.286476
vn 0.85732 0.378227 0.34921
vn 0.621207 0.697553 0.357102
vn 0.74749 0.543888 0.381372
vn 0.209057 -0.925641 0.31541
vn 0.737438 -0.621142 0.265269
vn 0.000883742 -0.960138 0.279525
vn -0.985931 0 -0.167155
vn -0.999831 -0.0171378 0.0067131
vn -0.999831 0.0171378 0.00671309
vn 0.192853 0.924175 0.329711
vn -0.0090454 0.957522 0.288217
vn 0.725711 0.626816 0.283628
vn 0.910941 0.199869 0.360885
vn 0.925006 0.00140401 0.379949
vn 0.917153 -0.197515 0.346148
vn 0.85732 -0.378226 0.34921
vn 0.74749 -0.543888 0.381372
vn 0.621207 -0.697553 0.357102
vn 0.221697 -0.9341 0.279833
vn -0.568444 -0.771235 0.286476
vn -0.384214 -0.863452 0.32685
vn -0.797432 0.579368 -0.168625
vn -0.820258 0.571985 0.00317905
vn -0.799571 0.600506 0.00887478
vn 0.562071 0.777104 0.283169
vn 0.959771 0.0724548 0.271273
vn 0.708982 0.62835 0.320188
vn 0.472022 -0.802494 0.364963
vn 0.286781 -0.88036 0.377788
vn 0.0946427 -0.932482 0.348596
vn -0.364936 -0.891566 0.268203
vn -0.913026 -0.295101 0.281602
vn -0.816779 -0.481666 0.317598
vn -0.304784 0.938028 -0.164954
vn -0.320728 0.947171 0.000617287
vn -0.290569 0.956848 0.00349926
vn 0.91157 0.301758 0.279253
vn 0.82018 -0.500438 0.277247
vn 0.940764 0.0977899 0.324653
vn 0.714797 0.619147 -0.32515
vn 0.861563 0.430623 -0.268837
vn 0.961517 0.272209 -0.0372406
vn -0.22404 -0.689524 0.68874
vn -0.44988 -0.577368 0.681362
vn 0.0275265 -0.725914 0.687234
vn -0.417504 0.872346 -0.254369
vn -0.20651 0.925143 -0.318534
vn -0.606833 0.793975 -0.036829
vn 0.00286971 0.961907 -0.273362
vn 0.308364 0.92364 -0.227596
vn 0.569448 0.774021 -0.276803
vn 0.942208 0.0807531 -0.32515
vn 0.950133 -0.158033 -0.268837
vn 0.937695 -0.346306 -0.0282981
vn -0.586544 -0.42615 0.68874
vn -0.701942 -0.200691 0.683375
vn -0.408634 -0.606093 0.6824
vn 0.174984 0.951145 -0.254369
vn 0.376658 0.869623 -0.319193
vn -0.023001 0.999109 -0.0353972
vn 0.569448 0.774021 -0.276803
vn 0.792374 0.565989 -0.227596
vn 0.912298 0.296424 -0.282569
vn 0.912298 0.296424 -0.282569
vn 0.973724 0.00785067 -0.227596
vn 0.915651 -0.291483 -0.276803
vn 0.700634 -0.66664 -0.254369
vn 0.574485 -0.818362 -0.0158585
vn 0.815874 -0.482146 -0.319193
vn -0.725009 0 0.68874
vn -0.698928 0.24886 0.670499
vn -0.675558 -0.250794 0.693342
vn 0.675784 0.686325 -0.268837
vn 0.809728 0.488486 -0.32515
vn 0.54955 0.83464 -0.0370186
vn 0.569448 -0.774021 -0.276803
vn 0.915651 -0.291483 -0.276803
vn 0.792374 -0.565989 -0.227596
vn 0.174984 -0.951145 -0.254369
vn -0.0230011 -0.999109 -0.0353972
vn 0.376658 -0.869623 -0.319193
vn -0.586544 0.42615 0.68874
vn -0.408634 0.606093 0.6824
vn -0.701942 0.200691 0.683375
vn 0.942208 -0.0807531 -0.32515
vn 0.937695 0.346306 -0.0282981
vn 0.950133 0.158033 -0.268837
vn 0.00286974 -0.961907 -0.273362
vn 0.569448 -0.774021 -0.276803
vn 0.308364 -0.92364 -0.227596
vn -0.417504 -0.872346 -0.254369
vn -0.606833 -0.793975 -0.036829
vn -0.20651 -0.925143 -0.318535
vn -0.22404 0.689524 0.68874
vn 0.0275265 0.725914 0.687234
vn -0.44988 0.577368 0.681362
vn 0.714797 -0.619147 -0.32515
vn 0.961517 -0.272209 -0.0372406
vn 0.861563 -0.430623 -0.268837
vn 0.210378 -0.923235 -0.321524
vn 0.611506 -0.790387 -0.0367168
vn 0.43055 -0.864397 -0.259701
vn -0.301069 -0.926595 -0.225341
vn -0.565022 -0.777686 -0.275598
vn 0.00286974 -0.961907 -0.273362
vn -0.856402 -0.446241 -0.259701
vn -0.960186 -0.277224 -0.0344785
vn -0.713053 -0.623379 -0.320863
vn 0.449741 0.573748 0.684504
vn -0.0232111 0.735138 0.67752
vn 0.224993 0.692458 0.685478
vn -0.372523 -0.870789 -0.320863
vn 0.032906 -0.998875 -0.0341533
vn -0.159757 -0.952383 -0.259701
vn -0.788209 -0.572667 -0.225341
vn -0.914225 -0.29705 -0.275598
vn -0.565022 -0.777686 -0.275598
vn -0.955138 0.142364 -0.259701
vn -0.940965 0.337091 -0.0309008
vn -0.943285 -0.0852023 -0.320863
vn 0.70599 0.204797 0.677964
vn 0.408165 0.605224 0.683451
vn 0.58904 0.427963 0.685478
vn -0.558921 -0.828384 -0.0372447
vn -0.689043 -0.676591 -0.259701
vn -0.813215 -0.485519 -0.320863
vn -0.97428 5.11565e-008 -0.225341
vn -0.914225 0.29705 -0.275598
vn -0.914225 -0.29705 -0.275598
vn -0.564637 0.824839 -0.0287205
vn -0.813215 0.485519 -0.320863
vn -0.689043 0.676591 -0.259701
vn 0.68286 0.249908 0.686475
vn 0.728093 0 0.685478
vn 0.694829 -0.248966 0.674706
vn 0.70599 -0.204797 0.677964
vn 0.58904 -0.427963 0.685478
vn 0.408165 -0.605224 0.683451
vn -0.955138 -0.142364 -0.259701
vn -0.943285 0.0852023 -0.320863
vn -0.940965 -0.337091 -0.0309008
vn -0.788209 0.572667 -0.225341
vn -0.565022 0.777686 -0.275598
vn -0.914225 0.29705 -0.275598
vn -0.372523 0.870789 -0.320863
vn -0.159757 0.952383 -0.259701
vn 0.032906 0.998875 -0.0341533
vn 0.449741 -0.573748 0.684504
vn 0.224993 -0.692458 0.685478
vn -0.0232112 -0.735138 0.67752
vn -0.856402 0.446241 -0.259701
vn -0.713053 0.623379 -0.320863
vn -0.960186 0.277224 -0.0344785
vn -0.301069 0.926595 -0.225341
vn 0.00286971 0.961907 -0.273362
vn -0.565022 0.777686 -0.275598
vn 0.210378 0.923235 -0.321524
vn 0.43055 0.864397 -0.259701
vn 0.611506 0.790387 -0.0367168
g plasma
usemtl plasma
s 1
f 3//1 2//2 1//3
f 4//4 3//5 1//6
f 4//7 1//8 5//9
f 5//10 1//11 6//12
f 6//13 1//14 7//15
f 1//16 8//17 7//18
f 1//19 9//20 8//21
f 1//22 10//23 9//24
f 11//25 10//26 1//27
f 2//28 11//29 1//30
f 32//31 22//32 23//33 33//34
f 33//35 23//36 24//37 34//38
f 35//39 34//40 24//41 25//42
f 36//43 35//44 25//45 26//46
f 37//47 36//48 26//49 27//50
f 28//51 38//52 37//53 27//54
f 29//55 39//56 38//57 28//58
f 30//59 40//60 39//61 29//62
f 30//63 31//64 41//65 40//66
f 31//67 22//68 32//69 41//70
f 42//71 32//72 33//73 43//74
f 43//75 33//76 34//77 44//78
f 45//79 44//80 34//81 35//82
f 46//83 45//84 35//85 36//86
f 47//87 46//88 36//89 37//90
f 38//91 48//92 47//93 37//94
f 39//95 49//96 48//97 38//98
f 40//99 50//100 49//101 39//102
f 40//103 41//104 51//105 50//106
f 41//107 32//108 42//109 51//110
f 42//111 43//112 52//113
f 43//114 44//115 52//116
f 52//117 44//118 45//119
f 52//120 45//121 46//122
f 52//123 46//124 47//125
f 48//126 52//127 47//128
f 49//129 52//130 48//131
f 50//132 52//133 49//134
f 50//135 51//136 52//137
f 51//138 42//139 52//140
f 13//141 56//142 3//143
f 56//144 2//145 3//146
f 56//147 12//148 2//149
f 12//150 56//151 13//152
f 14//153 57//154 4//155
f 57//156 3//157 4//158
f 57//159 13//160 3//161
f 13//162 57//163 14//164
f 14//165 58//166 15//167
f 58//168 5//169 15//170
f 58//171 4//172 5//173
f 58//174 14//175 4//176
f 16//177 15//178 59//179
f 59//180 6//181 16//182
f 59//183 5//184 6//185
f 15//186 5//187 59//188
f 17//189 16//190 60//191
f 60//192 7//193 17//194
f 60//195 6//196 7//197
f 16//198 6//199 60//200
f 17//201 7//202 61//203
f 61//204 18//205 17//206
f 61//207 8//208 18//209
f 7//210 8//211 61//212
f 18//213 8//214 62//215
f 62//216 19//217 18//218
f 62//219 9//220 19//221
f 8//222 9//223 62//224
f 9//225 53//226 19//227
f 53//228 20//229 19//230
f 10//231 20//232 53//233
f 10//234 53//235 9//236
f 11//237 54//238 10//239
f 54//240 20//241 10//242
f 54//243 21//244 20//245
f 21//246 54//247 11//248
f 2//249 55//250 11//251
f 55//252 21//253 11//254
f 55//255 12//256 21//257
f 12//258 55//259 2//260
f 23//261 63//262 13//263
f 63//264 12//265 13//266
f 63//267 22//268 12//269
f 22//270 63//271 23//272
f 24//273 64//274 14//275
f 64//276 13//277 14//278
f 64//279 23//280 13//281
f 23//282 64//283 24//284
f 24//285 65//286 25//287
f 65//288 15//289 25//290
f 65//291 14//292 15//293
f 65//294 24//295 14//296
f 26//297 25//298 66//299
f 66//300 16//301 26//302
f 66//303 15//304 16//305
f 25//306 15//307 66//308
f 27//309 26//310 67//311
f 67//312 17//313 27//314
f 67//315 16//316 17//317
f 26//318 16//319 67//320
f 27//321 17//322 68//323
f 68//324 28//325 27//326
f 68//327 18//328 28//329
f 17//330 18//331 68//332
f 28//333 18//334 69//335
f 69//336 29//337 28//338
f 69//339 19//340 29//341
f 18//342 19//343 69//344
f 19//345 70//346 29//347
f 70//348 30//349 29//350
f 20//351 30//352 70//353
f 20//354 70//355 19//356
f 21//357 71//358 20//359
f 71//360 30//361 20//362
f 71//363 31//364 30//365
f 31//366 71//367 21//368
f 12//369 72//370 21//371
f 72//372 31//373 21//374
f 72//375 22//376 31//377
f 22//378 72//379 12//380
