####
#
#	OBJ File Generated by LightWave3D
#	LightWave3D OBJ Export v2.3
#
####
o plasma gun.obj
mtllib plasma gun.mtl
g default
v -0.5 -0.5 0.5
v 0.5 -0.5 0.5
v 0.5 -0.5 -0.5
v -0.5 -0.5 -0.5
v -0.5 0.5 0.5
v 0.5 0.5 0.5
v 0.5 0.5 -0.5
v -0.5 0.5 -0.5
v -0.15 -0.15 0.6
v -0.15 0.15 0.6
v 0.15 0.15 0.6
v 0.15 -0.15 0.6
v 0.6 -0.15 0.15
v 0.6 0.15 0.15
v 0.6 0.15 -0.15
v 0.6 -0.15 -0.15
v -0.6 -0.15 0.15
v -0.6 -0.15 -0.15
v -0.6 0.15 -0.15
v -0.6 0.15 0.15
v -0.15 -0.15 1
v -0.15 0.15 1
v 0.15 0.15 1
v 0.15 -0.15 1
v 1 -0.15 0.15
v 1 0.15 0.15
v 1 0.15 -0.15
v 1 -0.15 -0.15
v -1 -0.15 0.15
v -1 -0.15 -0.15
v -1 0.15 -0.15
v -1 0.15 0.15
v -0.35 -0.35 -0.55
v 0.35 -0.35 -0.55
v 0.35 0.35 -0.55
v -0.35 0.35 -0.55
v -0.25 -0.25 -0.55
v 0.25 -0.25 -0.55
v 0.25 0.25 -0.55
v -0.25 0.25 -0.55
v -0.25 -0.25 0.25
v 0.25 -0.25 0.25
v 0.25 0.25 0.25
v -0.25 0.25 0.25
v -0.15 -0.15 0.25
v 0.15 -0.15 0.25
v 0.15 0.15 0.25
v -0.15 0.15 0.25
v -0.15 -0.15 -0.7
v 0.15 -0.15 -0.7
v 0.15 0.15 -0.7
v -0.15 0.15 -0.7
v -0.2 -0.2 -0.75
v 0.2 -0.2 -0.75
v 0.2 0.2 -0.75
v -0.2 0.2 -0.75
v -0.15 -0.15 -0.8
v 0.15 -0.15 -0.8
v 0.15 0.15 -0.8
v -0.15 0.15 -0.8
v -0.2 -0.2 -0.85
v 0.2 -0.2 -0.85
v 0.2 0.2 -0.85
v -0.2 0.2 -0.85
v -0.1 -0.1 -0.95
v 0.0999999 -0.1 -0.95
v 0.0999999 0.1 -0.95
v -0.1 0.1 -0.95
v -0.15 -0.15 -1
v 0.15 -0.15 -1
v 0.15 0.15 -1
v -0.15 0.15 -1
v -0.0500002 -0.05 -1.1
v 0.0499998 -0.05 -1.1
v 0.0499998 0.05 -1.1
v -0.0500002 0.05 -1.1
v -0.1 -0.1 -1.15
v 0.0999998 -0.1 -1.15
v 0.0999998 0.1 -1.15
v -0.1 0.1 -1.15
v -2.38419e-007 1.49012e-009 -1.25
v -2.38419e-007 -1.49012e-009 -1.25
vt 0.5 0.5
vn 0 -1 -0
vn 0 -1 -0
vn 0 -1 -0
vn 0 -1 -0
vn 0 0 1
vn 0 0 1
vn 0 0 1
vn 0 0 1
vn 1 0 -0
vn 1 0 -0
vn 1 0 -0
vn 1 0 -0
vn -1 0 -0
vn -1 0 -0
vn -1 0 -0
vn -1 0 -0
vn 0 1 -0
vn 0 1 -0
vn 0 1 -0
vn 0 1 -0
vn -0 -0.274721 0.961524
vn -0 -0.274721 0.961524
vn -0 -0.274721 0.961524
vn -0 -0.274721 0.961524
vn -0.274721 0 0.961524
vn -0.274721 0 0.961524
vn -0.274721 0 0.961524
vn -0.274721 0 0.961524
vn 0 0.274721 0.961524
vn 0 0.274721 0.961524
vn 0 0.274721 0.961524
vn 0 0.274721 0.961524
vn 0.274721 0 0.961524
vn 0.274721 0 0.961524
vn 0.274721 0 0.961524
vn 0.274721 0 0.961524
vn 0.961524 -0.274721 -0
vn 0.961524 -0.274721 -0
vn 0.961524 -0.274721 -0
vn 0.961524 -0.274721 -0
vn 0.961524 0 0.274721
vn 0.961524 0 0.274721
vn 0.961524 0 0.274721
vn 0.961524 0 0.274721
vn 0.961524 0.274721 0
vn 0.961524 0.274721 0
vn 0.961524 0.274721 0
vn 0.961524 0.274721 0
vn 0.961524 -0 -0.274721
vn 0.961524 -0 -0.274721
vn 0.961524 -0 -0.274721
vn 0.961524 -0 -0.274721
vn -0.961524 0 0.274721
vn -0.961524 0 0.274721
vn -0.961524 0 0.274721
vn -0.961524 0 0.274721
vn -0.961524 -0.274721 -0
vn -0.961524 -0.274721 -0
vn -0.961524 -0.274721 -0
vn -0.961524 -0.274721 -0
vn -0.961524 0 -0.274721
vn -0.961524 0 -0.274721
vn -0.961524 0 -0.274721
vn -0.961524 0 -0.274721
vn -0.961524 0.274721 -0
vn -0.961524 0.274721 -0
vn -0.961524 0.274721 -0
vn -0.961524 0.274721 -0
vn 0 -1 -0
vn 0 -1 -0
vn 0 -1 -0
vn 0 -1 -0
vn -1 0 -0
vn -1 0 -0
vn -1 0 -0
vn -1 0 -0
vn 0 1 0
vn 0 1 0
vn 0 1 0
vn 0 1 0
vn 1 0 -0
vn 1 0 -0
vn 1 0 -0
vn 1 0 -0
vn 0 -1 -0
vn 0 -1 -0
vn 0 -1 -0
vn 0 -1 -0
vn 0 0 1
vn 0 0 1
vn 0 0 1
vn 0 0 1
vn 0 1 0
vn 0 1 0
vn 0 1 0
vn 0 1 0
vn 0 -0 -1
vn 0 -0 -1
vn 0 -0 -1
vn 0 -0 -1
vn 0 0 1
vn 0 0 1
vn 0 0 1
vn 0 0 1
vn 0 -1 -0
vn 0 -1 -0
vn 0 -1 -0
vn 0 -1 -0
vn 0 -0 -1
vn 0 -0 -1
vn 0 -0 -1
vn 0 -0 -1
vn 0 1 0
vn 0 1 0
vn 0 1 0
vn 0 1 0
vn -0.316228 0 -0.948683
vn -0.316228 0 -0.948683
vn -0.316228 0 -0.948683
vn -0.316228 0 -0.948683
vn 0 -0.316228 -0.948683
vn 0 -0.316228 -0.948683
vn 0 -0.316228 -0.948683
vn 0 -0.316228 -0.948683
vn 0.316228 -0 -0.948683
vn 0.316228 -0 -0.948683
vn 0.316228 -0 -0.948683
vn 0.316228 -0 -0.948683
vn 0 0.316228 -0.948683
vn 0 0.316228 -0.948683
vn 0 0.316228 -0.948683
vn 0 0.316228 -0.948683
vn 0 0 -1
vn 0 0 -1
vn 0 0 -1
vn 0 0 -1
vn 0 0 -1
vn 0 0 -1
vn 0 0 -1
vn 0 0 -1
vn 0 -0 -1
vn 0 -0 -1
vn 0 -0 -1
vn 0 -0 -1
vn 0 -0 -1
vn 0 -0 -1
vn 0 -0 -1
vn 0 -0 -1
vn 1 0 -0
vn 1 0 -0
vn 1 0 -0
vn 1 0 -0
vn 0 1 0
vn 0 1 0
vn 0 1 0
vn 0 1 0
vn -1 0 -0
vn -1 0 -0
vn -1 0 -0
vn -1 0 -0
vn 0 -1 -0
vn 0 -1 -0
vn 0 -1 -0
vn 0 -1 -0
vn 0 0 -1
vn 0 0 -1
vn 0 0 -1
vn 0 0 -1
vn 0 0 -1
vn 0 0 -1
vn 0 0 -1
vn 0 0 -1
vn 0 -0 -1
vn 0 -0 -1
vn 0 -0 -1
vn 0 -0 -1
vn 0 -0 -1
vn 0 -0 -1
vn 0 -0 -1
vn 0 -0 -1
vn -1 0 -0
vn -1 0 -0
vn -1 0 -0
vn -1 0 -0
vn 0 -1 -0
vn 0 -1 -0
vn 0 -1 -0
vn 0 -1 -0
vn 1 0 -0
vn 1 0 -0
vn 1 0 -0
vn 1 0 -0
vn 0 1 0
vn 0 1 0
vn 0 1 0
vn 0 1 0
vn -0.707107 0 0.707106
vn -0.707107 0 0.707106
vn -0.707107 0 0.707106
vn -0.707107 0 0.707106
vn -0 -0.707107 0.707107
vn -0 -0.707107 0.707107
vn -0 -0.707107 0.707107
vn -0 -0.707107 0.707107
vn 0.707107 0 0.707106
vn 0.707107 0 0.707106
vn 0.707107 0 0.707106
vn 0.707107 0 0.707106
vn 0 0.707107 0.707107
vn 0 0.707107 0.707107
vn 0 0.707107 0.707107
vn 0 0.707107 0.707107
vn -0.707107 0 -0.707106
vn -0.707107 0 -0.707106
vn -0.707107 0 -0.707106
vn -0.707107 0 -0.707106
vn 0 -0.707107 -0.707107
vn 0 -0.707107 -0.707107
vn 0 -0.707107 -0.707107
vn 0 -0.707107 -0.707107
vn 0.707107 -0 -0.707106
vn 0.707107 -0 -0.707106
vn 0.707107 -0 -0.707106
vn 0.707107 -0 -0.707106
vn 0 0.707107 -0.707107
vn 0 0.707107 -0.707107
vn 0 0.707107 -0.707107
vn 0 0.707107 -0.707107
vn -0.707107 0 0.707106
vn -0.707107 0 0.707106
vn -0.707107 0 0.707106
vn -0.707107 0 0.707106
vn -0 -0.707107 0.707107
vn -0 -0.707107 0.707107
vn -0 -0.707107 0.707107
vn -0 -0.707107 0.707107
vn 0.707107 0 0.707106
vn 0.707107 0 0.707106
vn 0.707107 0 0.707106
vn 0.707107 0 0.707106
vn 0 0.707107 0.707107
vn 0 0.707107 0.707107
vn 0 0.707107 0.707107
vn 0 0.707107 0.707107
vn -0.707107 0 -0.707106
vn -0.707107 0 -0.707106
vn -0.707107 0 -0.707106
vn -0.707107 0 -0.707106
vn 0 -0.707107 -0.707107
vn 0 -0.707107 -0.707107
vn 0 -0.707107 -0.707107
vn 0 -0.707107 -0.707107
vn 0.707107 -0 -0.707107
vn 0.707107 -0 -0.707107
vn 0.707107 -0 -0.707107
vn 0.707107 -0 -0.707107
vn 0 0.707107 -0.707107
vn 0 0.707107 -0.707107
vn 0 0.707107 -0.707107
vn 0 0.707107 -0.707107
vn -0.707107 0 0.707107
vn -0.707107 0 0.707107
vn -0.707107 0 0.707107
vn -0.707107 0 0.707107
vn -0 -0.707106 0.707107
vn -0 -0.707106 0.707107
vn -0 -0.707106 0.707107
vn -0 -0.707106 0.707107
vn 0.707107 0 0.707107
vn 0.707107 0 0.707107
vn 0.707107 0 0.707107
vn 0.707107 0 0.707107
vn 0 0.707106 0.707107
vn 0 0.707106 0.707107
vn 0 0.707106 0.707107
vn 0 0.707106 0.707107
vn -0.707107 0 -0.707106
vn -0.707107 0 -0.707106
vn -0.707107 0 -0.707106
vn -0.707107 0 -0.707106
vn 0 -0.707107 -0.707107
vn 0 -0.707107 -0.707107
vn 0 -0.707107 -0.707107
vn 0 -0.707107 -0.707107
vn 0.707107 -0 -0.707107
vn 0.707107 -0 -0.707107
vn 0.707107 -0 -0.707107
vn 0.707107 -0 -0.707107
vn 0 0.707107 -0.707107
vn 0 0.707107 -0.707107
vn 0 0.707107 -0.707107
vn 0 0.707107 -0.707107
vn -0.707107 0 0.707107
vn -0.707107 0 0.707107
vn -0.707107 0 0.707107
vn -0.707107 0 0.707107
vn -0 -0.707106 0.707107
vn -0 -0.707106 0.707107
vn -0 -0.707106 0.707107
vn -0 -0.707106 0.707107
vn 0.707107 0 0.707107
vn 0.707107 0 0.707107
vn 0.707107 0 0.707107
vn 0.707107 0 0.707107
vn 0 0.707107 0.707107
vn 0 0.707107 0.707107
vn 0 0.707107 0.707107
vn 0 0.707107 0.707107
vn -0.707107 0 -0.707106
vn -0.707107 0 -0.707106
vn -0.707107 0 -0.707106
vn -0.707107 0 -0.707106
vn 0 -0.707107 -0.707107
vn 0 -0.707107 -0.707107
vn 0 -0.707107 -0.707107
vn 0.707107 -0 -0.707107
vn 0.707107 -0 -0.707107
vn 0.707107 -0 -0.707107
vn 0.707107 -0 -0.707107
vn 0 0.707107 -0.707107
vn 0 0.707107 -0.707107
vn 0 0.707107 -0.707107
g Metal
usemtl Metal
s off
f 4/1/1 3/1/2 2/1/3 1/1/4
f 24/1/5 23/1/6 22/1/7 21/1/8
f 28/1/9 27/1/10 26/1/11 25/1/12
g Plasma_Cannon_tip
usemtl Plasma_Cannon_tip
s off
l 81 82
g Metal
usemtl Metal
s off
f 32/1/13 31/1/14 30/1/15 29/1/16
f 6/1/17 7/1/18 8/1/19 5/1/20
f 12/1/21 9/1/22 1/1/23 2/1/24
f 9/1/25 10/1/26 5/1/27 1/1/28
f 6/1/29 5/1/30 10/1/31 11/1/32
f 6/1/33 11/1/34 12/1/35 2/1/36
f 3/1/37 16/1/38 13/1/39 2/1/40
f 13/1/41 14/1/42 6/1/43 2/1/44
f 15/1/45 7/1/46 6/1/47 14/1/48
f 7/1/49 15/1/50 16/1/51 3/1/52
f 5/1/53 20/1/54 17/1/55 1/1/56
f 17/1/57 18/1/58 4/1/59 1/1/60
f 18/1/61 19/1/62 8/1/63 4/1/64
f 5/1/65 8/1/66 19/1/67 20/1/68
f 21/1/69 9/1/70 12/1/71 24/1/72
f 22/1/73 10/1/74 9/1/75 21/1/76
f 11/1/77 10/1/78 22/1/79 23/1/80
f 12/1/81 11/1/82 23/1/83 24/1/84
f 13/1/85 16/1/86 28/1/87 25/1/88
f 26/1/89 14/1/90 13/1/91 25/1/92
f 27/1/93 15/1/94 14/1/95 26/1/96
f 16/1/97 15/1/98 27/1/99 28/1/100
f 20/1/101 32/1/102 29/1/103 17/1/104
f 29/1/105 30/1/106 18/1/107 17/1/108
f 30/1/109 31/1/110 19/1/111 18/1/112
f 19/1/113 31/1/114 32/1/115 20/1/116
f 8/1/117 36/1/118 33/1/119 4/1/120
f 4/1/121 33/1/122 34/1/123 3/1/124
f 34/1/125 35/1/126 7/1/127 3/1/128
f 36/1/129 8/1/130 7/1/131 35/1/132
f 36/1/133 40/1/134 37/1/135 33/1/136
f 33/1/137 37/1/138 38/1/139 34/1/140
f 38/1/141 39/1/142 35/1/143 34/1/144
f 40/1/145 36/1/146 35/1/147 39/1/148
f 37/1/149 40/1/150 44/1/151 41/1/152
f 38/1/153 37/1/154 41/1/155 42/1/156
f 43/1/157 39/1/158 38/1/159 42/1/160
f 44/1/161 40/1/162 39/1/163 43/1/164
f 44/1/165 48/1/166 45/1/167 41/1/168
f 41/1/169 45/1/170 46/1/171 42/1/172
f 46/1/173 47/1/174 43/1/175 42/1/176
f 48/1/177 44/1/178 43/1/179 47/1/180
f 48/1/181 52/1/182 49/1/183 45/1/184
f 45/1/185 49/1/186 50/1/187 46/1/188
f 50/1/189 51/1/190 47/1/191 46/1/192
f 51/1/193 52/1/194 48/1/195 47/1/196
g Plasma_Cannon_tip
usemtl Plasma_Cannon_tip
s off
f 49//197 52//198 56//199 53//200
f 50//201 49//202 53//203 54//204
f 55//205 51//206 50//207 54//208
f 55//209 56//210 52//211 51//212
f 56//213 60//214 57//215 53//216
f 53//217 57//218 58//219 54//220
f 58//221 59//222 55//223 54//224
f 60//225 56//226 55//227 59//228
f 57//229 60//230 64//231 61//232
f 58//233 57//234 61//235 62//236
f 63//237 59//238 58//239 62//240
f 63//241 64//242 60//243 59//244
f 64//245 68//246 65//247 61//248
f 61//249 65//250 66//251 62//252
f 66//253 67//254 63//255 62//256
f 68//257 64//258 63//259 67//260
f 65//261 68//262 72//263 69//264
f 66//265 65//266 69//267 70//268
f 71//269 67//270 66//271 70//272
f 71//273 72//274 68//275 67//276
f 72//277 76//278 73//279 69//280
f 69//281 73//282 74//283 70//284
f 74//285 75//286 71//287 70//288
f 76//289 72//290 71//291 75//292
f 73//293 76//294 80//295 77//296
f 74//297 73//298 77//299 78//300
f 79//301 75//302 74//303 78//304
f 79//305 80//306 76//307 75//308
f 80//309 81//310 82//311 77//312
f 77//313 82//314 78//315
f 82//316 81//317 79//318 78//319
f 80//320 79//321 81//322
