####
#
#	OBJ File Generated by LightWave3D
#	LightWave3D OBJ Export v2.3
#
####
o shield.obj
mtllib shield.mtl
g default
v 0.5 -0.5 -0.5
v -0.5 -0.5 -0.5
v -0.5 -0.5 0.5
v 0.5 -0.5 0.5
v 0.5 0.5 -0.5
v -0.5 0.5 -0.5
v -0.5 0.5 0.5
v 0.5 0.5 0.5
v 0.15 -0.15 -0.6
v 0.15 0.15 -0.6
v -0.15 0.15 -0.6
v -0.15 -0.15 -0.6
v -0.6 -0.15 -0.15
v -0.6 0.15 -0.15
v -0.6 0.15 0.15
v -0.6 -0.15 0.15
v 0.15 -0.15 -1
v 0.15 0.15 -1
v -0.15 0.15 -1
v -0.15 -0.15 -1
v -1 -0.15 -0.15
v -1 0.15 -0.15
v -1 0.15 0.15
v -1 -0.15 0.15
v 0.4 -0.4 0.5
v -0.4 -0.4 0.5
v -0.4 0.4 0.5
v 0.4 0.4 0.5
v 0.5 -0.4 -0.4
v 0.5 -0.4 0.4
v 0.5 0.4 0.4
v 0.5 0.4 -0.4
v 0.4 -0.4 0.45
v -0.4 -0.4 0.45
v -0.4 0.4 0.45
v 0.4 0.4 0.45
v 0.45 -0.4 -0.4
v 0.45 -0.4 0.4
v 0.45 0.4 0.4
v 0.45 0.4 -0.4
v 0.25 -0.25 0.45
v -0.25 -0.25 0.45
v -0.25 0.25 0.45
v 0.25 0.25 0.45
v 0.45 -0.25 -0.25
v 0.45 -0.25 0.25
v 0.45 0.25 0.25
v 0.45 0.25 -0.25
v 0.15 -0.15 0.6
v -0.15 -0.15 0.6
v -0.15 0.15 0.6
v 0.15 0.15 0.6
v 0.6 -0.15 -0.15
v 0.6 -0.15 0.15
v 0.6 0.15 0.15
v 0.6 0.15 -0.15
v 0.15 -0.15 0.8
v -0.15 -0.15 0.8
v -0.15 0.15 0.8
v 0.15 0.15 0.8
v 0.8 -0.15 -0.15
v 0.8 -0.15 0.15
v 0.8 0.15 0.15
v 0.8 0.15 -0.15
v 0.15 -0.15 1.05
v -0.15 -0.15 1.05
v -0.15 0.15 1.05
v 0.15 0.15 1.05
v 1.05 -0.15 -0.15
v 1.05 -0.15 0.15
v 1.05 0.15 0.15
v 1.05 0.15 -0.15
v 0.4 -0.15 0.8
v 0.4 -0.15 1.05
v 0.4 0.15 1.05
v 0.4 0.15 0.8
v -0.15 -0.4 0.8
v -0.15 -0.4 1.05
v 0.15 -0.4 1.05
v 0.15 -0.4 0.8
v -0.4 -0.15 0.8
v -0.4 0.15 0.8
v -0.4 0.15 1.05
v -0.4 -0.15 1.05
v -0.15 0.4 0.8
v 0.15 0.4 0.8
v 0.15 0.4 1.05
v -0.15 0.4 1.05
v 0.8 -0.15 -0.4
v 1.05 -0.15 -0.4
v 1.05 0.15 -0.4
v 0.8 0.15 -0.4
v 0.8 -0.4 -0.15
v 0.8 -0.4 0.15
v 1.05 -0.4 0.15
v 1.05 -0.4 -0.15
v 0.8 -0.15 0.4
v 0.8 0.15 0.4
v 1.05 0.15 0.4
v 1.05 -0.15 0.4
v 0.8 0.4 -0.15
v 1.05 0.4 -0.15
v 1.05 0.4 0.15
v 0.8 0.4 0.15
vt 0.5 0.5
vn -0 -1 0
vn -0 -1 0
vn -0 -1 0
vn -0 -1 0
vn 0 -0 -1
vn 0 -0 -1
vn 0 -0 -1
vn 0 -0 -1
vn -1 0 -0
vn -1 0 -0
vn -1 0 -0
vn -1 0 -0
vn 0 0 1
vn 0 0 1
vn 0 0 1
vn 0 0 1
vn 1 -0 -0
vn 1 -0 -0
vn 1 -0 -0
vn 1 -0 -0
vn 0 1 -0
vn 0 1 -0
vn 0 1 -0
vn 0 1 -0
vn 0 -0.274722 -0.961524
vn 0 -0.274722 -0.961524
vn 0 -0.274722 -0.961524
vn 0 -0.274722 -0.961524
vn 0.274722 -0 -0.961524
vn 0.274722 -0 -0.961524
vn 0.274722 -0 -0.961524
vn 0.274722 -0 -0.961524
vn -0 0.274722 -0.961524
vn -0 0.274722 -0.961524
vn -0 0.274722 -0.961524
vn -0 0.274722 -0.961524
vn -0.274722 0 -0.961524
vn -0.274722 0 -0.961524
vn -0.274722 0 -0.961524
vn -0.274722 0 -0.961524
vn -0.961524 -0.274721 0
vn -0.961524 -0.274721 0
vn -0.961524 -0.274721 0
vn -0.961524 -0.274721 0
vn -0.961524 0 -0.274721
vn -0.961524 0 -0.274721
vn -0.961524 0 -0.274721
vn -0.961524 0 -0.274721
vn -0.961524 0.274721 -0
vn -0.961524 0.274721 -0
vn -0.961524 0.274721 -0
vn -0.961524 0.274721 -0
vn -0.961524 0 0.274721
vn -0.961524 0 0.274721
vn -0.961524 0 0.274721
vn -0.961524 0 0.274721
vn 0 -1 -0
vn 0 -1 -0
vn 0 -1 -0
vn 0 -1 -0
vn 1 -0 -0
vn 1 -0 -0
vn 1 -0 -0
vn 1 -0 -0
vn -0 1 -0
vn -0 1 -0
vn -0 1 -0
vn -0 1 -0
vn -1 0 -0
vn -1 0 -0
vn -1 0 -0
vn -1 0 -0
vn 0 -1 -0
vn 0 -1 -0
vn 0 -1 -0
vn 0 -1 -0
vn 0 0 -1
vn 0 0 -1
vn 0 0 -1
vn 0 0 -1
vn -0 1 -0
vn -0 1 -0
vn -0 1 -0
vn -0 1 -0
vn 0 0 1
vn 0 0 1
vn 0 0 1
vn 0 0 1
vn 0 0 1
vn 0 0 1
vn 0 0 1
vn 0 0 1
vn 0 0 1
vn 0 0 1
vn 0 0 1
vn 0 0 1
vn 0 0 1
vn 0 0 1
vn 0 0 1
vn 0 0 1
vn 0 0 1
vn 0 0 1
vn 0 0 1
vn 0 0 1
vn 1 -0 -0
vn 1 -0 -0
vn 1 -0 -0
vn 1 -0 -0
vn 1 0 -0
vn 1 0 -0
vn 1 0 -0
vn 1 0 -0
vn 1 0 -0
vn 1 0 -0
vn 1 0 -0
vn 1 0 -0
vn 1 -0 -0
vn 1 -0 -0
vn 1 -0 -0
vn 1 -0 -0
vn -1 0 -0
vn -1 0 -0
vn -1 0 -0
vn -1 0 -0
vn -0 1 -0
vn -0 1 -0
vn -0 1 -0
vn -0 1 -0
vn 1 -0 -0
vn 1 -0 -0
vn 1 -0 -0
vn 1 -0 -0
vn 0 -1 -0
vn 0 -1 -0
vn 0 -1 -0
vn 0 -1 -0
vn 0 0 1
vn 0 0 1
vn 0 0 1
vn 0 0 1
vn -0 1 -0
vn -0 1 -0
vn -0 1 -0
vn -0 1 -0
vn 0 0 -1
vn 0 0 -1
vn 0 0 -1
vn 0 0 -1
vn 0 -1 -0
vn 0 -1 -0
vn 0 -1 -0
vn 0 -1 -0
vn 0 0 1
vn 0 0 1
vn 0 0 1
vn 0 0 1
vn 0 0 1
vn 0 0 1
vn 0 0 1
vn 0 0 1
vn 0 0 1
vn 0 0 1
vn 0 0 1
vn 0 0 1
vn 0 0 1
vn 0 0 1
vn 0 0 1
vn 0 0 1
vn 1 -0 -0
vn 1 -0 -0
vn 1 -0 -0
vn 1 -0 -0
vn 1 0 -0
vn 1 0 -0
vn 1 0 -0
vn 1 0 -0
vn 1 0 -0
vn 1 0 -0
vn 1 0 -0
vn 1 0 -0
vn 1 -0 -0
vn 1 -0 -0
vn 1 -0 -0
vn 1 -0 -0
vn 0.832051 0 0.5547
vn 0.832051 0 0.5547
vn 0.832051 0 0.5547
vn 0.832051 0 0.5547
vn 0 -0.83205 0.5547
vn 0 -0.83205 0.5547
vn 0 -0.83205 0.5547
vn 0 -0.83205 0.5547
vn -0.832051 0 0.5547
vn -0.832051 0 0.5547
vn -0.832051 0 0.5547
vn -0.832051 0 0.5547
vn 0 0.832051 0.5547
vn 0 0.832051 0.5547
vn 0 0.832051 0.5547
vn 0 0.832051 0.5547
vn 0.5547 -0 -0.832051
vn 0.5547 -0 -0.832051
vn 0.5547 -0 -0.832051
vn 0.5547 -0 -0.832051
vn 0.5547 -0.83205 -0
vn 0.5547 -0.83205 -0
vn 0.5547 -0.83205 -0
vn 0.5547 -0.83205 -0
vn 0.5547 0 0.832051
vn 0.5547 0 0.832051
vn 0.5547 0 0.832051
vn 0.5547 0 0.832051
vn 0.5547 0.832051 -0
vn 0.5547 0.832051 -0
vn 0.5547 0.832051 -0
vn 0.5547 0.832051 -0
vn 1 -0 -0
vn 1 -0 -0
vn 1 -0 -0
vn 1 -0 -0
vn 0 -1 -0
vn 0 -1 -0
vn 0 -1 -0
vn 0 -1 -0
vn -1 0 -0
vn -1 0 -0
vn -1 0 -0
vn -1 0 -0
vn -0 1 -0
vn -0 1 -0
vn -0 1 -0
vn -0 1 -0
vn 0 0 -1
vn 0 0 -1
vn 0 0 -1
vn 0 0 -1
vn 0 -1 -0
vn 0 -1 -0
vn 0 -1 -0
vn 0 -1 -0
vn 0 0 1
vn 0 0 1
vn 0 0 1
vn 0 0 1
vn -0 1 -0
vn -0 1 -0
vn -0 1 -0
vn -0 1 -0
vn 1 -0 -0
vn 1 -0 -0
vn 1 -0 -0
vn 1 -0 -0
vn 0 -1 -0
vn 0 -1 -0
vn 0 -1 -0
vn 0 -1 -0
vn -1 0 -0
vn -1 0 -0
vn -1 0 -0
vn -1 0 -0
vn -0 1 -0
vn -0 1 -0
vn -0 1 -0
vn -0 1 -0
vn 0 0 -1
vn 0 0 -1
vn 0 0 -1
vn 0 0 -1
vn 0 -1 -0
vn 0 -1 -0
vn 0 -1 -0
vn 0 -1 -0
vn 0 0 1
vn 0 0 1
vn 0 0 1
vn 0 0 1
vn -0 1 -0
vn -0 1 -0
vn -0 1 -0
vn -0 1 -0
vn 0 0 -1
vn 0 0 -1
vn 0 0 -1
vn 0 0 -1
vn 0 -1 -0
vn 0 -1 -0
vn 0 -1 -0
vn 0 -1 -0
vn 0 0 1
vn 0 0 1
vn 0 0 1
vn 0 0 1
vn -0 1 -0
vn -0 1 -0
vn -0 1 -0
vn -0 1 -0
vn 0 0 -1
vn 0 0 -1
vn 0 0 -1
vn 0 0 -1
vn -1 0 -0
vn -1 0 -0
vn -1 0 -0
vn -1 0 -0
vn 0 0 1
vn 0 0 1
vn 0 0 1
vn 0 0 1
vn 1 -0 -0
vn 1 -0 -0
vn 1 -0 -0
vn 1 -0 -0
vn 0 -1 -0
vn 0 -1 -0
vn 0 -1 -0
vn 0 -1 -0
vn 0 0 -1
vn 0 0 -1
vn 0 0 -1
vn 0 0 -1
vn -0 1 -0
vn -0 1 -0
vn -0 1 -0
vn -0 1 -0
vn 0 0 1
vn 0 0 1
vn 0 0 1
vn 0 0 1
vn -1 0 -0
vn -1 0 -0
vn -1 0 -0
vn -1 0 -0
vn 0 0 -1
vn 0 0 -1
vn 0 0 -1
vn 0 0 -1
vn 1 -0 -0
vn 1 -0 -0
vn 1 -0 -0
vn 1 -0 -0
vn 0 0 1
vn 0 0 1
vn 0 0 1
vn 0 0 1
vn -1 0 -0
vn -1 0 -0
vn -1 0 -0
vn -1 0 -0
vn 0 -1 -0
vn 0 -1 -0
vn 0 -1 -0
vn 0 -1 -0
vn 1 -0 -0
vn 1 -0 -0
vn 1 -0 -0
vn 1 -0 -0
vn -0 1 -0
vn -0 1 -0
vn -0 1 -0
vn -0 1 -0
vn 0 0 -1
vn 0 0 -1
vn 0 0 -1
vn 0 0 -1
vn -1 0 -0
vn -1 0 -0
vn -1 0 -0
vn -1 0 -0
vn 0 0 1
vn 0 0 1
vn 0 0 1
vn 0 0 1
vn 1 -0 -0
vn 1 -0 -0
vn 1 -0 -0
vn 1 -0 -0
vn 0 -1 -0
vn 0 -1 -0
vn 0 -1 -0
vn 0 -1 -0
vn -1 0 -0
vn -1 0 -0
vn -1 0 -0
vn -1 0 -0
vn -0 1 -0
vn -0 1 -0
vn -0 1 -0
vn -0 1 -0
vn 1 -0 -0
vn 1 -0 -0
vn 1 -0 -0
vn 1 -0 -0
vn -1 0 -0
vn -1 0 -0
vn -1 0 -0
vn -1 0 -0
vn 0 0 -1
vn 0 0 -1
vn 0 0 -1
vn 0 0 -1
vn 1 -0 -0
vn 1 -0 -0
vn 1 -0 -0
vn 1 -0 -0
vn 0 0 1
vn 0 0 1
vn 0 0 1
vn 0 0 1
g Metal
usemtl Metal
s off
f 4/1/1 3/1/2 2/1/3 1/1/4
f 20/1/5 19/1/6 18/1/7 17/1/8
f 24/1/9 23/1/10 22/1/11 21/1/12
g Shield_Blue
usemtl Shield_Blue
s off
f 68//13 67//14 66//15 65//16
f 72//17 71//18 70//19 69//20
g Metal
usemtl Metal
s off
f 6/1/21 7/1/22 8/1/23 5/1/24
f 12/1/25 9/1/26 1/1/27 2/1/28
f 9/1/29 10/1/30 5/1/31 1/1/32
f 6/1/33 5/1/34 10/1/35 11/1/36
f 6/1/37 11/1/38 12/1/39 2/1/40
f 3/1/41 16/1/42 13/1/43 2/1/44
f 13/1/45 14/1/46 6/1/47 2/1/48
f 15/1/49 7/1/50 6/1/51 14/1/52
f 7/1/53 15/1/54 16/1/55 3/1/56
f 17/1/57 9/1/58 12/1/59 20/1/60
f 18/1/61 10/1/62 9/1/63 17/1/64
f 11/1/65 10/1/66 18/1/67 19/1/68
f 12/1/69 11/1/70 19/1/71 20/1/72
f 13/1/73 16/1/74 24/1/75 21/1/76
f 22/1/77 14/1/78 13/1/79 21/1/80
f 23/1/81 15/1/82 14/1/83 22/1/84
f 16/1/85 15/1/86 23/1/87 24/1/88
f 8/1/89 28/1/90 25/1/91 4/1/92
f 4/1/93 25/1/94 26/1/95 3/1/96
f 26/1/97 27/1/98 7/1/99 3/1/100
f 28/1/101 8/1/102 7/1/103 27/1/104
f 5/1/105 32/1/106 29/1/107 1/1/108
f 29/1/109 30/1/110 4/1/111 1/1/112
f 30/1/113 31/1/114 8/1/115 4/1/116
f 5/1/117 8/1/118 31/1/119 32/1/120
f 25/1/121 28/1/122 36/1/123 33/1/124
f 26/1/125 25/1/126 33/1/127 34/1/128
f 35/1/129 27/1/130 26/1/131 34/1/132
f 36/1/133 28/1/134 27/1/135 35/1/136
f 29/1/137 32/1/138 40/1/139 37/1/140
f 38/1/141 30/1/142 29/1/143 37/1/144
f 39/1/145 31/1/146 30/1/147 38/1/148
f 32/1/149 31/1/150 39/1/151 40/1/152
f 36/1/153 44/1/154 41/1/155 33/1/156
f 33/1/157 41/1/158 42/1/159 34/1/160
f 42/1/161 43/1/162 35/1/163 34/1/164
f 44/1/165 36/1/166 35/1/167 43/1/168
f 40/1/169 48/1/170 45/1/171 37/1/172
f 45/1/173 46/1/174 38/1/175 37/1/176
f 46/1/177 47/1/178 39/1/179 38/1/180
f 40/1/181 39/1/182 47/1/183 48/1/184
f 44/1/185 52/1/186 49/1/187 41/1/188
f 41/1/189 49/1/190 50/1/191 42/1/192
f 50/1/193 51/1/194 43/1/195 42/1/196
f 52/1/197 44/1/198 43/1/199 51/1/200
f 48/1/201 56/1/202 53/1/203 45/1/204
f 53/1/205 54/1/206 46/1/207 45/1/208
f 54/1/209 55/1/210 47/1/211 46/1/212
f 48/1/213 47/1/214 55/1/215 56/1/216
f 52/1/217 60/1/218 57/1/219 49/1/220
f 49/1/221 57/1/222 58/1/223 50/1/224
f 58/1/225 59/1/226 51/1/227 50/1/228
f 59/1/229 60/1/230 52/1/231 51/1/232
f 56/1/233 64/1/234 61/1/235 53/1/236
f 61/1/237 62/1/238 54/1/239 53/1/240
f 62/1/241 63/1/242 55/1/243 54/1/244
f 55/1/245 63/1/246 64/1/247 56/1/248
g Shield_Blue
usemtl Shield_Blue
s off
f 76//249 75//250 74//251 73//252
f 80//253 79//254 78//255 77//256
f 84//257 83//258 82//259 81//260
f 88//261 87//262 86//263 85//264
f 92//265 91//266 90//267 89//268
f 96//269 95//270 94//271 93//272
f 100//273 99//274 98//275 97//276
f 104//277 103//278 102//279 101//280
f 60//281 76//282 73//283 57//284
f 73//285 74//286 65//287 57//288
f 74//289 75//290 68//291 65//292
f 68//293 75//294 76//295 60//296
f 58//297 57//298 80//299 77//300
f 78//301 66//302 58//303 77//304
f 79//305 65//306 66//307 78//308
f 57//309 65//310 79//311 80//312
f 58//313 66//314 84//315 81//316
f 82//317 59//318 58//319 81//320
f 83//321 67//322 59//323 82//324
f 66//325 67//326 83//327 84//328
f 67//329 88//330 85//331 59//332
f 85//333 86//334 60//335 59//336
f 86//337 87//338 68//339 60//340
f 68//341 87//342 88//343 67//344
f 61//345 64//346 92//347 89//348
f 90//349 69//350 61//351 89//352
f 91//353 72//354 69//355 90//356
f 64//357 72//358 91//359 92//360
f 61//361 69//362 96//363 93//364
f 94//365 62//366 61//367 93//368
f 95//369 70//370 62//371 94//372
f 69//373 70//374 95//375 96//376
f 70//377 100//378 97//379 62//380
f 97//381 98//382 63//383 62//384
f 98//385 99//386 71//387 63//388
f 71//389 99//390 100//391 70//392
f 63//393 104//394 101//395 64//396
f 101//397 102//398 72//399 64//400
f 102//401 103//402 71//403 72//404
f 71//405 103//406 104//407 63//408
