####
#
#	OBJ File Generated by LightWave3D
#	LightWave3D OBJ Export v2.3
#
####
o testobj2.obj
mtllib testobj2.mtl
g default
v -0.5 -0.5 0.5
v 0.5 -0.5 0.5
v 0.5 -0.5 -0.5
v -0.5 -0.5 -0.5
v -0.5 0.5 0.5
v 0.5 0.5 0.5
v 0.5 0.5 -0.5
v -0.5 0.5 -0.5
v 0 1 -0
vt -0.707107 0.707107
vt -0.207107 0.5
vt 0 -1
vt 0 0
vt 0 0.707107
vt 0 1
vt 0.5 -0.510153
vt 0.5 1.51015
vt 0.707107 0.707107
vt 1 0
vt 1 1
vt 1.20711 0.5
vn 0 -1 -0
vn 0 -1 -0
vn 0 -1 -0
vn 0 -1 -0
vn 0 0 1
vn 0 0 1
vn 0 0 1
vn 0 0 1
vn 1 0 -0
vn 1 0 -0
vn 1 0 -0
vn 1 0 -0
vn 0 0 -1
vn 0 0 -1
vn 0 0 -1
vn 0 0 -1
vn -1 0 -0
vn -1 0 -0
vn -1 0 -0
vn -1 0 -0
vn 0 0.707107 0.707107
vn 0 0.707107 0.707107
vn 0 0.707107 0.707107
vn -0.707107 0.707107 -0
vn -0.707107 0.707107 -0
vn -0.707107 0.707107 -0
vn -0 0.707107 -0.707107
vn -0 0.707107 -0.707107
vn -0 0.707107 -0.707107
vn 0.707107 0.707107 0
vn 0.707107 0.707107 0
vn 0.707107 0.707107 0
g Bottom
usemtl Bottom
s off
f 4/3/1 3/3/2 2/3/3 1/3/4
g Backwards
usemtl Backwards
s off
f 2/10/5 6/11/6 5/6/7 1/4/8
g Right
usemtl Right
s off
f 3/10/9 7/11/10 6/6/11 2/4/12
g Forwards
usemtl Forwards
s off
f 8/4/13 7/4/14 3/4/15 4/4/16
g Left
usemtl Left
s off
f 5/2/17 8/8/18 4/12/19 1/7/20
g Roof
usemtl Roof
s off
f 9/5/21 5/5/22 6/5/23
f 9/1/24 8/1/25 5/1/26
f 9/5/27 7/5/28 8/5/29
f 7/9/30 9/9/31 6/9/32
